<svg width="32" height="32" viewBox="0 0 32 32" fill="none" xmlns="http://www.w3.org/2000/svg">
<path d="M31.3888 15.0737C29.7433 13.4913 21.5125 12.5042 18.9163 12.2174C19.042 11.9208 19.1493 11.6129 19.2384 11.2963C19.5929 11.141 19.9744 10.9969 20.3699 10.8768C20.4179 11.0194 20.6453 11.5633 20.7739 11.8218C25.9963 11.9659 26.2647 7.94141 26.4765 6.83822C26.6841 5.76035 26.6743 4.71782 28.4655 2.81369C25.7971 2.03541 21.9591 4.01863 20.6736 6.97103C20.1905 6.79022 19.706 6.65597 19.2271 6.5741C18.8837 5.18969 17.0968 1.33329 12.4082 1.33329C9.37119 1.33329 6.30866 2.58769 4.00612 4.77435C2.76584 5.95247 1.79119 7.351 1.10894 8.93316C0.372938 10.6409 0 12.5212 0 14.5228C0 21.4926 4.75759 27.5993 7.44588 27.5993C8.61975 27.5993 9.62975 26.7206 9.86706 25.9323C10.0663 26.4734 10.6751 28.153 10.8757 28.5795C11.1724 29.2123 12.5412 29.7591 13.1401 29.1022C13.91 29.5302 15.324 29.7873 16.0938 28.6459C17.577 28.9595 18.8894 28.0753 18.9176 27.0186C19.645 26.9804 20.0024 25.9578 19.8442 25.144C19.727 24.5451 18.4754 22.3936 17.9866 21.652C18.9529 22.4388 21.4023 22.6607 21.699 21.652C23.2572 22.8754 25.6867 22.234 25.8789 21.2382C27.7732 21.7298 29.9444 20.6491 29.5884 19.341C32.6312 19.1306 32.2421 15.894 31.3888 15.0735L31.3888 15.0737ZM23.4655 9.70863C22.6645 9.39357 21.6481 9.19435 20.9361 9.19435C19.9261 9.19435 19.3103 9.76647 18.3596 9.76647C18.1604 9.76647 17.6844 9.76794 17.3016 9.63088C17.5531 9.895 17.8652 10.0377 18.4712 10.0377C18.8328 10.0377 19.5504 9.85263 20.1311 9.67888C20.1395 9.80182 20.1523 9.92182 20.1692 10.0433C19.0815 10.3032 17.9401 10.9954 17.6096 11.1748C16.8751 9.55169 17.5065 8.01757 18.0899 7.30994C20.706 7.31554 22.82 9.11247 23.4655 9.7086V9.70863ZM24.5977 9.58716L24.1978 9.21275C23.7868 8.82716 23.3588 8.47957 22.918 8.17022C23.5734 6.87063 24.3969 5.45103 25.4366 4.57235C24.2925 5.03422 23.1609 6.413 22.4928 7.88635C22.1523 7.67022 21.8062 7.47675 21.4573 7.30863C22.3896 5.31822 24.5552 3.65704 26.9425 3.52716C25.3434 4.97797 25.9438 7.87088 24.5961 9.58582L24.5977 9.58716ZM21.3127 10.9425C21.1361 10.5597 20.9588 9.9261 20.98 9.55316C21.2767 9.5461 21.8473 9.65769 21.9377 9.67888C21.9024 9.85407 21.884 10.2382 21.884 10.2877C21.9405 10.1902 22.0973 9.85541 22.1609 9.72263C22.7316 9.83144 23.4817 10.0136 23.9211 10.2185C23.404 10.5533 22.5276 10.917 21.3127 10.9425V10.9425ZM11.8832 8.34038C11.2368 8.1085 11.2368 7.52585 11.8832 7.29397C12.5296 7.0621 13.3421 7.35344 13.3421 7.81716C13.3421 8.28088 12.5296 8.57222 11.8832 8.34035V8.34038ZM14.0384 8.55663C14.0384 7.27663 12.6432 6.47222 11.5331 7.11222C10.4229 7.75222 10.4229 9.36103 11.5331 10.001C12.6432 10.641 14.0384 9.83675 14.0384 8.55663ZM17.7493 6.45678C15.6629 8.57144 16.4864 11.2469 17.2464 12.4547C16.1658 14.2529 14.0412 15.4818 11.5733 16.0412C14.3435 16.0412 15.9736 15.3278 16.9215 14.63C17.5261 14.1836 17.8538 13.7443 18.0219 13.5C22.1298 13.7656 28.6333 15.0892 29.2676 15.5172C29.5219 15.6896 29.7847 16.0695 29.8241 16.434C26.7376 16.0017 21.1733 15.5469 19.7169 15.4707C20.7509 15.6176 28.2943 17.0457 29.6023 17.3805C29.2039 18.0289 28.2969 18.488 26.9311 18.1688C27.6699 19.1745 26.2362 20.3809 24.2387 19.7171C24.678 20.7046 22.901 21.593 20.8795 20.5647C20.905 21.5522 18.3722 21.6666 17.372 20.5746C17.3918 20.7046 17.5104 20.9531 17.5614 21.0634C17.2392 23.9479 14.876 25.7377 12.4562 25.7377C6.53178 25.7377 1.37006 20.9248 1.37006 14.523C1.37006 7.75529 6.37206 2.70382 12.4082 2.70382C15.8662 2.70382 17.4286 5.42594 17.7493 6.45716L17.7493 6.45678Z" fill="black"/>
</svg>
