<?xml version="1.0" encoding="UTF-8"?>
<!DOCTYPE svg
PUBLIC "-//W3C//DTD SVG 1.1//EN"
     "http://www.w3.org/Graphics/SVG/1.1/DTD/svg11.dtd">
<svg version="1.1" xmlns="http://www.w3.org/2000/svg" xmlns:xlink="http://www.w3.org/1999/xlink" width="3300" height="2200">
<!--glyph: "uni100000.medium", point size: 100.0, font version: "19.0d6e1", template writer version: "123"-->
<style>.SFSymbolsPreviewWireframe {fill:none;opacity:1.0;stroke:black;stroke-width:0.5}
</style>
<g id="Notes">
<rect height="2200" id="artboard" style="fill:white;opacity:1" width="3300" x="0" y="0"/>
<line style="fill:none;stroke:black;opacity:1;stroke-width:0.5;" x1="263" x2="3036" y1="292" y2="292"/>
<text style="stroke:none;fill:black;font-family:sans-serif;font-size:13;font-weight:bold;" transform="matrix(1 0 0 1 263 322)">Weight/Scale Variations</text>
<text style="stroke:none;fill:black;font-family:sans-serif;font-size:13;text-anchor:middle;" transform="matrix(1 0 0 1 559.711 322)">Ultralight</text>
<text style="stroke:none;fill:black;font-family:sans-serif;font-size:13;text-anchor:middle;" transform="matrix(1 0 0 1 856.422 322)">Thin</text>
<text style="stroke:none;fill:black;font-family:sans-serif;font-size:13;text-anchor:middle;" transform="matrix(1 0 0 1 1153.13 322)">Light</text>
<text style="stroke:none;fill:black;font-family:sans-serif;font-size:13;text-anchor:middle;" transform="matrix(1 0 0 1 1449.84 322)">Regular</text>
<text style="stroke:none;fill:black;font-family:sans-serif;font-size:13;text-anchor:middle;" transform="matrix(1 0 0 1 1746.56 322)">Medium</text>
<text style="stroke:none;fill:black;font-family:sans-serif;font-size:13;text-anchor:middle;" transform="matrix(1 0 0 1 2043.27 322)">Semibold</text>
<text style="stroke:none;fill:black;font-family:sans-serif;font-size:13;text-anchor:middle;" transform="matrix(1 0 0 1 2339.98 322)">Bold</text>
<text style="stroke:none;fill:black;font-family:sans-serif;font-size:13;text-anchor:middle;" transform="matrix(1 0 0 1 2636.69 322)">Heavy</text>
<text style="stroke:none;fill:black;font-family:sans-serif;font-size:13;text-anchor:middle;" transform="matrix(1 0 0 1 2933.4 322)">Black</text>
<line style="fill:none;stroke:black;opacity:1;stroke-width:0.5;" x1="263" x2="3036" y1="1903" y2="1903"/>
<g transform="matrix(0.2 0 0 0.2 263 1933)">
 <path d="m46.2402 4.15039c21.5332 0 39.4531-17.8711 39.4531-39.4043s-17.9688-39.4043-39.502-39.4043c-21.4844 0-39.3555 17.8711-39.3555 39.4043s17.9199 39.4043 39.4043 39.4043Zm0-7.42188c-17.7246 0-31.8848-14.209-31.8848-31.9824s14.1113-31.9824 31.8359-31.9824c17.7734 0 32.0312 14.209 32.0312 31.9824s-14.209 31.9824-31.9824 31.9824Zm-17.9688-31.9824c0 2.14844 1.51367 3.61328 3.75977 3.61328h10.498v10.5957c0 2.19727 1.46484 3.71094 3.61328 3.71094 2.24609 0 3.71094-1.51367 3.71094-3.71094v-10.5957h10.5957c2.19727 0 3.71094-1.46484 3.71094-3.61328 0-2.19727-1.51367-3.71094-3.71094-3.71094h-10.5957v-10.5469c0-2.24609-1.46484-3.75977-3.71094-3.75977-2.14844 0-3.61328 1.51367-3.61328 3.75977v10.5469h-10.498c-2.24609 0-3.75977 1.51367-3.75977 3.71094Z"/>
</g>
<g transform="matrix(0.2 0 0 0.2 281.506 1933)">
 <path d="m58.5449 14.5508c27.2461 0 49.8047-22.6074 49.8047-49.8047 0-27.2461-22.6074-49.8047-49.8535-49.8047-27.1973 0-49.7559 22.5586-49.7559 49.8047 0 27.1973 22.6074 49.8047 49.8047 49.8047Zm0-8.30078c-23.0469 0-41.4551-18.457-41.4551-41.5039s18.3594-41.5039 41.4062-41.5039 41.5527 18.457 41.5527 41.5039-18.457 41.5039-41.5039 41.5039Zm-22.6562-41.5039c0 2.39258 1.66016 4.00391 4.15039 4.00391h14.3555v14.4043c0 2.44141 1.66016 4.15039 4.05273 4.15039 2.44141 0 4.15039-1.66016 4.15039-4.15039v-14.4043h14.4043c2.44141 0 4.15039-1.61133 4.15039-4.00391 0-2.44141-1.70898-4.15039-4.15039-4.15039h-14.4043v-14.3555c0-2.49023-1.70898-4.19922-4.15039-4.19922-2.39258 0-4.05273 1.70898-4.05273 4.19922v14.3555h-14.3555c-2.49023 0-4.15039 1.70898-4.15039 4.15039Z"/>
</g>
<g transform="matrix(0.2 0 0 0.2 304.924 1933)">
 <path d="m74.8535 28.3203c34.8145 0 63.623-28.8086 63.623-63.5742 0-34.8145-28.8574-63.623-63.6719-63.623-34.7656 0-63.5254 28.8086-63.5254 63.623 0 34.7656 28.8086 63.5742 63.5742 63.5742Zm0-9.08203c-30.1758 0-54.4434-24.3164-54.4434-54.4922 0-30.2246 24.2188-54.4922 54.3945-54.4922 30.2246 0 54.541 24.2676 54.541 54.4922 0 30.1758-24.2676 54.4922-54.4922 54.4922Zm-28.8574-54.4922c0 2.58789 1.85547 4.39453 4.58984 4.39453h19.7266v19.7754c0 2.68555 1.85547 4.58984 4.44336 4.58984 2.68555 0 4.54102-1.85547 4.54102-4.58984v-19.7754h19.7754c2.68555 0 4.58984-1.80664 4.58984-4.39453 0-2.73438-1.85547-4.58984-4.58984-4.58984h-19.7754v-19.7266c0-2.73438-1.85547-4.63867-4.54102-4.63867-2.58789 0-4.44336 1.9043-4.44336 4.63867v19.7266h-19.7266c-2.73438 0-4.58984 1.85547-4.58984 4.58984Z"/>
</g>
<text style="stroke:none;fill:black;font-family:sans-serif;font-size:13;font-weight:bold;" transform="matrix(1 0 0 1 263 1953)">Design Variations</text>
<text style="stroke:none;fill:black;font-family:sans-serif;font-size:13;" transform="matrix(1 0 0 1 263 1971)">Symbols are supported in up to nine weights and three scales.</text>
<text style="stroke:none;fill:black;font-family:sans-serif;font-size:13;" transform="matrix(1 0 0 1 263 1989)">For optimal layout with text and other symbols, vertically align</text>
<text style="stroke:none;fill:black;font-family:sans-serif;font-size:13;" transform="matrix(1 0 0 1 263 2007)">symbols with the adjacent text.</text>
<line style="fill:none;stroke:#00AEEF;stroke-width:0.5;opacity:1.0;" x1="776" x2="776" y1="1919" y2="1933"/>
<g transform="matrix(0.2 0 0 0.2 776 1933)">
 <path d="m16.5527 0.78125c2.58789 0 3.85742-0.976562 4.78516-3.71094l6.29883-17.2363h28.8086l6.29883 17.2363c0.927734 2.73438 2.19727 3.71094 4.73633 3.71094 2.58789 0 4.24805-1.5625 4.24805-4.00391 0-0.830078-0.146484-1.61133-0.537109-2.63672l-22.9004-60.9863c-1.12305-2.97852-3.125-4.49219-6.25-4.49219-3.02734 0-5.07812 1.46484-6.15234 4.44336l-22.9004 61.084c-0.390625 1.02539-0.537109 1.80664-0.537109 2.63672 0 2.44141 1.5625 3.95508 4.10156 3.95508Zm13.4766-28.3691 11.8652-32.8613h0.244141l11.8652 32.8613Z"/>
</g>
<line style="fill:none;stroke:#00AEEF;stroke-width:0.5;opacity:1.0;" x1="792.836" x2="792.836" y1="1919" y2="1933"/>
<text style="stroke:none;fill:black;font-family:sans-serif;font-size:13;font-weight:bold;" transform="matrix(1 0 0 1 776 1953)">Margins</text>
<text style="stroke:none;fill:black;font-family:sans-serif;font-size:13;" transform="matrix(1 0 0 1 776 1971)">Leading and trailing margins on the left and right side of each symbol</text>
<text style="stroke:none;fill:black;font-family:sans-serif;font-size:13;" transform="matrix(1 0 0 1 776 1989)">can be adjusted by modifying the x-location of the margin guidelines.</text>
<text style="stroke:none;fill:black;font-family:sans-serif;font-size:13;" transform="matrix(1 0 0 1 776 2007)">Modifications are automatically applied proportionally to all</text>
<text style="stroke:none;fill:black;font-family:sans-serif;font-size:13;" transform="matrix(1 0 0 1 776 2025)">scales and weights.</text>
<g transform="matrix(0.2 0 0 0.2 1289 1933)">
 <path d="m14.209 9.32617 8.49609 8.54492c4.29688 4.3457 9.22852 4.05273 13.8672-1.07422l53.4668-58.9355-4.83398-4.88281-53.0762 58.3984c-1.75781 2.00195-3.41797 2.49023-5.76172 0.146484l-5.85938-5.81055c-2.34375-2.29492-1.80664-4.00391 0.195312-5.81055l57.373-54.0039-4.88281-4.83398-57.959 54.4434c-4.93164 4.58984-5.32227 9.47266-1.02539 13.8184Zm32.0801-90.9668c-2.09961 2.05078-2.24609 4.93164-1.07422 6.88477 1.17188 1.80664 3.4668 2.97852 6.68945 2.14844 7.32422-1.70898 14.9414-2.00195 22.0703 2.68555l-2.92969 7.27539c-1.70898 4.15039-0.830078 7.08008 1.85547 9.81445l11.4746 11.5723c2.44141 2.44141 4.49219 2.53906 7.32422 2.05078l5.32227-0.976562 3.32031 3.36914-0.195312 2.7832c-0.195312 2.49023 0.439453 4.39453 2.88086 6.78711l3.80859 3.71094c2.39258 2.39258 5.46875 2.53906 7.8125 0.195312l14.5508-14.5996c2.34375-2.34375 2.24609-5.32227-0.146484-7.71484l-3.85742-3.80859c-2.39258-2.39258-4.24805-3.17383-6.64062-2.97852l-2.88086 0.244141-3.22266-3.17383 1.2207-5.61523c0.634766-2.83203-0.146484-5.0293-3.07617-7.95898l-10.9863-10.9375c-16.6992-16.6016-38.8672-16.2109-53.3203-1.75781Zm7.4707 1.85547c12.1582-8.88672 28.6133-7.37305 39.7461 3.75977l12.1582 12.0605c1.17188 1.17188 1.36719 2.09961 1.02539 3.80859l-1.61133 7.42188 7.51953 7.42188 4.93164-0.292969c1.26953-0.0488281 1.66016 0.0488281 2.63672 1.02539l2.88086 2.88086-12.207 12.207-2.88086-2.88086c-0.976562-0.976562-1.12305-1.36719-1.07422-2.68555l0.341797-4.88281-7.4707-7.42188-7.61719 1.26953c-1.61133 0.341797-2.34375 0.195312-3.56445-0.976562l-10.0098-10.0098c-1.26953-1.17188-1.41602-2.00195-0.634766-3.85742l4.39453-10.4492c-7.8125-7.27539-17.9688-10.4004-28.125-7.42188-0.78125 0.195312-1.07422-0.439453-0.439453-0.976562Z"/>
</g>
<text style="stroke:none;fill:black;font-family:sans-serif;font-size:13;font-weight:bold;" transform="matrix(1 0 0 1 1289 1953)">Exporting</text>
<text style="stroke:none;fill:black;font-family:sans-serif;font-size:13;" transform="matrix(1 0 0 1 1289 1971)">Symbols should be outlined when exporting to ensure the</text>
<text style="stroke:none;fill:black;font-family:sans-serif;font-size:13;" transform="matrix(1 0 0 1 1289 1989)">design is preserved when submitting to Xcode.</text>
<text id="template-version" style="stroke:none;fill:black;font-family:sans-serif;font-size:13;text-anchor:end;" transform="matrix(1 0 0 1 3036 1933)">Template v.5.0</text>
<text style="stroke:none;fill:black;font-family:sans-serif;font-size:13;text-anchor:end;" transform="matrix(1 0 0 1 3036 1951)">Requires Xcode 15 or greater</text>
<text id="descriptive-name" style="stroke:none;fill:black;font-family:sans-serif;font-size:13;text-anchor:end;" transform="matrix(1 0 0 1 3036 1969)">Generated from circle</text>
<text style="stroke:none;fill:black;font-family:sans-serif;font-size:13;text-anchor:end;" transform="matrix(1 0 0 1 3036 1987)">Typeset at 100.0 points</text>
<text style="stroke:none;fill:black;font-family:sans-serif;font-size:13;" transform="matrix(1 0 0 1 263 726)">Small</text>
<text style="stroke:none;fill:black;font-family:sans-serif;font-size:13;" transform="matrix(1 0 0 1 263 1156)">Medium</text>
<text style="stroke:none;fill:black;font-family:sans-serif;font-size:13;" transform="matrix(1 0 0 1 263 1586)">Large</text>
</g>
<g id="Guides">
<g id="H-reference" style="fill:#27AAE1;stroke:none;" transform="matrix(1 0 0 1 339 696)">
 <path d="M0.993654 0L3.63775 0L29.3281-67.1323L30.0303-67.1323L30.0303-70.459L28.1226-70.459ZM11.6885-24.4799L46.9815-24.4799L46.2315-26.7285L12.4385-26.7285ZM55.1196 0L57.7637 0L30.6382-70.459L29.4326-70.459L29.4326-67.1323Z"/>
</g>
<line id="Baseline-S" style="fill:none;stroke:#27AAE1;opacity:1;stroke-width:0.5;" x1="263" x2="3036" y1="696" y2="696"/>
<line id="Capline-S" style="fill:none;stroke:#27AAE1;opacity:1;stroke-width:0.5;" x1="263" x2="3036" y1="625.541" y2="625.541"/>
<g id="H-reference" style="fill:#27AAE1;stroke:none;" transform="matrix(1 0 0 1 339 1126)">
 <path d="M0.993654 0L3.63775 0L29.3281-67.1323L30.0303-67.1323L30.0303-70.459L28.1226-70.459ZM11.6885-24.4799L46.9815-24.4799L46.2315-26.7285L12.4385-26.7285ZM55.1196 0L57.7637 0L30.6382-70.459L29.4326-70.459L29.4326-67.1323Z"/>
</g>
<line id="Baseline-M" style="fill:none;stroke:#27AAE1;opacity:1;stroke-width:0.5;" x1="263" x2="3036" y1="1126" y2="1126"/>
<line id="Capline-M" style="fill:none;stroke:#27AAE1;opacity:1;stroke-width:0.5;" x1="263" x2="3036" y1="1055.54" y2="1055.54"/>
<g id="H-reference" style="fill:#27AAE1;stroke:none;" transform="matrix(1 0 0 1 339 1556)">
 <path d="M0.993654 0L3.63775 0L29.3281-67.1323L30.0303-67.1323L30.0303-70.459L28.1226-70.459ZM11.6885-24.4799L46.9815-24.4799L46.2315-26.7285L12.4385-26.7285ZM55.1196 0L57.7637 0L30.6382-70.459L29.4326-70.459L29.4326-67.1323Z"/>
</g>
<line id="Baseline-L" style="fill:none;stroke:#27AAE1;opacity:1;stroke-width:0.5;" x1="263" x2="3036" y1="1556" y2="1556"/>
<line id="Capline-L" style="fill:none;stroke:#27AAE1;opacity:1;stroke-width:0.5;" x1="263" x2="3036" y1="1485.54" y2="1485.54"/>
<line id="left-margin-Ultralight-S" style="fill:none;stroke:#00AEEF;stroke-width:0.5;opacity:1.0;" x1="515.649" x2="515.649" y1="600.785" y2="720.121"/>
<line id="right-margin-Ultralight-S" style="fill:none;stroke:#00AEEF;stroke-width:0.5;opacity:1.0;" x1="603.773" x2="603.773" y1="600.785" y2="720.121"/>
<line id="left-margin-Regular-S" style="fill:none;stroke:#00AEEF;stroke-width:0.5;opacity:1.0;" x1="1403.58" x2="1403.58" y1="600.785" y2="720.121"/>
<line id="right-margin-Regular-S" style="fill:none;stroke:#00AEEF;stroke-width:0.5;opacity:1.0;" x1="1496.11" x2="1496.11" y1="600.785" y2="720.121"/>
<line id="left-margin-Black-S" style="fill:none;stroke:#00AEEF;stroke-width:0.5;opacity:1.0;" x1="2884.57" x2="2884.57" y1="600.785" y2="720.121"/>
<line id="right-margin-Black-S" style="fill:none;stroke:#00AEEF;stroke-width:0.5;opacity:1.0;" x1="2982.23" x2="2982.23" y1="600.785" y2="720.121"/>
</g>
<g id="Symbols">
<g id="Black-S" transform="matrix(1 0 0 1 2884.57 696) translate(3 -81.25)">
<path d="M90.7428 43.3371C86.0121 38.7876 62.3485 35.9498 54.8843 35.1253C55.2457 34.2724 55.5544 33.3872 55.8104 32.4772C56.8297 32.0306 57.9264 31.6162 59.0634 31.2709C59.2014 31.681 59.8554 33.2446 60.2249 33.9879C75.2393 34.4023 76.011 22.8318 76.62 19.6601C77.2169 16.5612 77.1885 13.5639 82.3382 8.08956C74.6666 5.85201 63.6323 11.5538 59.9366 20.0419C58.5478 19.5221 57.1547 19.1361 55.7778 18.9007C54.7907 14.9206 49.6532 3.8334 36.1737 3.8334C27.4422 3.8334 18.6374 7.43982 12.0176 13.7265C8.4518 17.1136 5.64966 21.1343 3.6882 25.683C1.5722 30.5927 0.5 35.9985 0.5 41.7531C0.5 61.7915 14.1781 79.3481 21.9069 79.3481C25.2818 79.3481 28.1855 76.822 28.8678 74.5557C29.4405 76.1113 31.1908 80.9401 31.7677 82.1664C32.6206 83.9857 36.5559 85.5577 38.2779 83.669C40.4913 84.8995 44.5565 85.6386 46.7698 82.3572C51.034 83.2588 54.8071 80.7166 54.888 77.6786C56.9795 77.569 58.0068 74.6287 57.5521 72.2893C57.2152 70.5674 53.6168 64.3819 52.2115 62.2498C54.9896 64.5119 62.0317 65.1497 62.8847 62.2498C67.3643 65.7669 74.3494 63.9231 74.9019 61.0599C80.3479 62.4732 86.5901 59.3664 85.5666 55.6055C94.3147 55.0006 93.196 45.6956 90.7427 43.3365L90.7428 43.3371ZM67.9632 27.9125C65.6605 27.0067 62.7384 26.4339 60.6914 26.4339C57.7876 26.4339 56.017 28.0788 53.2838 28.0788C52.7112 28.0788 51.3427 28.083 50.2421 27.689C50.9651 28.4483 51.8624 28.8586 53.6047 28.8586C54.6442 28.8586 56.7073 28.3265 58.3768 27.827C58.401 28.1804 58.4377 28.5254 58.4864 28.8746C55.3592 29.6218 52.0779 31.612 51.1276 32.1276C49.0158 27.4613 50.8313 23.0507 52.5084 21.0163C60.0297 21.0324 66.1075 26.1986 67.9632 27.9124V27.9125ZM71.2184 27.5633L70.0688 26.4869C68.887 25.3783 67.6565 24.379 66.3892 23.4896C68.2736 19.7533 70.6411 15.6719 73.6303 13.1457C70.3409 14.4736 67.0876 18.4376 65.1667 22.6735C64.188 22.0521 63.1929 21.4959 62.1897 21.0125C64.87 15.2901 71.0961 10.5142 77.9596 10.1408C73.3623 14.3119 75.0885 22.629 71.2137 27.5594L71.2184 27.5633ZM61.7739 31.4599C61.2664 30.3593 60.7565 28.5377 60.8175 27.4655C61.6704 27.4452 63.3111 27.7661 63.5709 27.827C63.4693 28.3306 63.4165 29.4351 63.4165 29.5773C63.579 29.2971 64.0299 28.3345 64.2127 27.9528C65.8533 28.2656 68.01 28.7892 69.2731 29.3784C67.7865 30.341 65.2668 31.3867 61.7739 31.4599V31.4599ZM34.6642 23.9788C32.8057 23.3121 32.8057 21.637 34.6642 20.9704C36.5226 20.3037 38.8586 21.1413 38.8586 22.4745C38.8586 23.8077 36.5226 24.6453 34.6642 23.9787V23.9788ZM40.8604 24.6005C40.8604 20.9205 36.8493 18.6078 33.6576 20.4478C30.4659 22.2878 30.4659 26.9132 33.6576 28.7532C36.8492 30.5932 40.8604 28.2809 40.8604 24.6005ZM51.5294 18.5635C45.5309 24.6431 47.8984 32.3351 50.0834 35.8073C46.9765 40.9774 40.8685 44.5105 33.7734 46.1186C41.7375 46.1186 46.4242 44.0678 49.1492 42.0615C50.8876 40.778 51.8295 39.515 52.3129 38.8127C64.123 39.5763 82.8209 43.3816 84.6443 44.6121C85.3754 45.1078 86.1309 46.1999 86.2444 47.248C77.3706 46.0052 61.3733 44.6977 57.1862 44.4783C60.1589 44.9008 81.8461 49.0067 85.6066 49.9692C84.4611 51.8334 81.8537 53.1532 77.9269 52.2355C80.051 55.127 75.9289 58.5954 70.1862 56.6869C71.4493 59.5258 66.3403 62.08 60.5286 59.1237C60.6018 61.9627 53.32 62.2916 50.4446 59.1521C50.5013 59.5258 50.8425 60.2404 50.989 60.5574C50.0628 68.8504 43.2686 73.996 36.3115 73.996C19.2789 73.996 4.43893 60.1591 4.43893 41.7538C4.43893 22.2966 18.8197 7.77367 36.1735 7.77367C46.1153 7.77367 50.6072 15.5998 51.5291 18.5645L51.5294 18.5635Z" fill="black"/>
</g>
<g id="Regular-S" transform="matrix(1 0 0 1 1403.58 696) translate(0 -81.25)">
 <path d="M90.7428 43.3371C86.0121 38.7876 62.3485 35.9498 54.8843 35.1253C55.2457 34.2724 55.5544 33.3872 55.8104 32.4772C56.8297 32.0306 57.9264 31.6162 59.0634 31.2709C59.2014 31.681 59.8554 33.2446 60.2249 33.9879C75.2393 34.4023 76.011 22.8318 76.62 19.6601C77.2169 16.5612 77.1885 13.5639 82.3382 8.08956C74.6666 5.85201 63.6323 11.5538 59.9366 20.0419C58.5478 19.5221 57.1547 19.1361 55.7778 18.9007C54.7907 14.9206 49.6532 3.8334 36.1737 3.8334C27.4422 3.8334 18.6374 7.43982 12.0176 13.7265C8.4518 17.1136 5.64966 21.1343 3.6882 25.683C1.5722 30.5927 0.5 35.9985 0.5 41.7531C0.5 61.7915 14.1781 79.3481 21.9069 79.3481C25.2818 79.3481 28.1855 76.822 28.8678 74.5557C29.4405 76.1113 31.1908 80.9401 31.7677 82.1664C32.6206 83.9857 36.5559 85.5577 38.2779 83.669C40.4913 84.8995 44.5565 85.6386 46.7698 82.3572C51.034 83.2588 54.8071 80.7166 54.888 77.6786C56.9795 77.569 58.0068 74.6287 57.5521 72.2893C57.2152 70.5674 53.6168 64.3819 52.2115 62.2498C54.9896 64.5119 62.0317 65.1497 62.8847 62.2498C67.3643 65.7669 74.3494 63.9231 74.9019 61.0599C80.3479 62.4732 86.5901 59.3664 85.5666 55.6055C94.3147 55.0006 93.196 45.6956 90.7427 43.3365L90.7428 43.3371ZM67.9632 27.9125C65.6605 27.0067 62.7384 26.4339 60.6914 26.4339C57.7876 26.4339 56.017 28.0788 53.2838 28.0788C52.7112 28.0788 51.3427 28.083 50.2421 27.689C50.9651 28.4483 51.8624 28.8586 53.6047 28.8586C54.6442 28.8586 56.7073 28.3265 58.3768 27.827C58.401 28.1804 58.4377 28.5254 58.4864 28.8746C55.3592 29.6218 52.0779 31.612 51.1276 32.1276C49.0158 27.4613 50.8313 23.0507 52.5084 21.0163C60.0297 21.0324 66.1075 26.1986 67.9632 27.9124V27.9125ZM71.2184 27.5633L70.0688 26.4869C68.887 25.3783 67.6565 24.379 66.3892 23.4896C68.2736 19.7533 70.6411 15.6719 73.6303 13.1457C70.3409 14.4736 67.0876 18.4376 65.1667 22.6735C64.188 22.0521 63.1929 21.4959 62.1897 21.0125C64.87 15.2901 71.0961 10.5142 77.9596 10.1408C73.3623 14.3119 75.0885 22.629 71.2137 27.5594L71.2184 27.5633ZM61.7739 31.4599C61.2664 30.3593 60.7565 28.5377 60.8175 27.4655C61.6704 27.4452 63.3111 27.7661 63.5709 27.827C63.4693 28.3306 63.4165 29.4351 63.4165 29.5773C63.579 29.2971 64.0299 28.3345 64.2127 27.9528C65.8533 28.2656 68.01 28.7892 69.2731 29.3784C67.7865 30.341 65.2668 31.3867 61.7739 31.4599V31.4599ZM34.6642 23.9788C32.8057 23.3121 32.8057 21.637 34.6642 20.9704C36.5226 20.3037 38.8586 21.1413 38.8586 22.4745C38.8586 23.8077 36.5226 24.6453 34.6642 23.9787V23.9788ZM40.8604 24.6005C40.8604 20.9205 36.8493 18.6078 33.6576 20.4478C30.4659 22.2878 30.4659 26.9132 33.6576 28.7532C36.8492 30.5932 40.8604 28.2809 40.8604 24.6005ZM51.5294 18.5635C45.5309 24.6431 47.8984 32.3351 50.0834 35.8073C46.9765 40.9774 40.8685 44.5105 33.7734 46.1186C41.7375 46.1186 46.4242 44.0678 49.1492 42.0615C50.8876 40.778 51.8295 39.515 52.3129 38.8127C64.123 39.5763 82.8209 43.3816 84.6443 44.6121C85.3754 45.1078 86.1309 46.1999 86.2444 47.248C77.3706 46.0052 61.3733 44.6977 57.1862 44.4783C60.1589 44.9008 81.8461 49.0067 85.6066 49.9692C84.4611 51.8334 81.8537 53.1532 77.9269 52.2355C80.051 55.127 75.9289 58.5954 70.1862 56.6869C71.4493 59.5258 66.3403 62.08 60.5286 59.1237C60.6018 61.9627 53.32 62.2916 50.4446 59.1521C50.5013 59.5258 50.8425 60.2404 50.989 60.5574C50.0628 68.8504 43.2686 73.996 36.3115 73.996C19.2789 73.996 4.43893 60.1591 4.43893 41.7538C4.43893 22.2966 18.8197 7.77367 36.1735 7.77367C46.1153 7.77367 50.6072 15.5998 51.5291 18.5645L51.5294 18.5635Z" fill="black"/>
</g>
<g id="Ultralight-S" transform="matrix(1 0 0 1 515.649 696) translate(-2 -81.25)">
 <path d="M90.7428 43.3371C86.0121 38.7876 62.3485 35.9498 54.8843 35.1253C55.2457 34.2724 55.5544 33.3872 55.8104 32.4772C56.8297 32.0306 57.9264 31.6162 59.0634 31.2709C59.2014 31.681 59.8554 33.2446 60.2249 33.9879C75.2393 34.4023 76.011 22.8318 76.62 19.6601C77.2169 16.5612 77.1885 13.5639 82.3382 8.08956C74.6666 5.85201 63.6323 11.5538 59.9366 20.0419C58.5478 19.5221 57.1547 19.1361 55.7778 18.9007C54.7907 14.9206 49.6532 3.8334 36.1737 3.8334C27.4422 3.8334 18.6374 7.43982 12.0176 13.7265C8.4518 17.1136 5.64966 21.1343 3.6882 25.683C1.5722 30.5927 0.5 35.9985 0.5 41.7531C0.5 61.7915 14.1781 79.3481 21.9069 79.3481C25.2818 79.3481 28.1855 76.822 28.8678 74.5557C29.4405 76.1113 31.1908 80.9401 31.7677 82.1664C32.6206 83.9857 36.5559 85.5577 38.2779 83.669C40.4913 84.8995 44.5565 85.6386 46.7698 82.3572C51.034 83.2588 54.8071 80.7166 54.888 77.6786C56.9795 77.569 58.0068 74.6287 57.5521 72.2893C57.2152 70.5674 53.6168 64.3819 52.2115 62.2498C54.9896 64.5119 62.0317 65.1497 62.8847 62.2498C67.3643 65.7669 74.3494 63.9231 74.9019 61.0599C80.3479 62.4732 86.5901 59.3664 85.5666 55.6055C94.3147 55.0006 93.196 45.6956 90.7427 43.3365L90.7428 43.3371ZM67.9632 27.9125C65.6605 27.0067 62.7384 26.4339 60.6914 26.4339C57.7876 26.4339 56.017 28.0788 53.2838 28.0788C52.7112 28.0788 51.3427 28.083 50.2421 27.689C50.9651 28.4483 51.8624 28.8586 53.6047 28.8586C54.6442 28.8586 56.7073 28.3265 58.3768 27.827C58.401 28.1804 58.4377 28.5254 58.4864 28.8746C55.3592 29.6218 52.0779 31.612 51.1276 32.1276C49.0158 27.4613 50.8313 23.0507 52.5084 21.0163C60.0297 21.0324 66.1075 26.1986 67.9632 27.9124V27.9125ZM71.2184 27.5633L70.0688 26.4869C68.887 25.3783 67.6565 24.379 66.3892 23.4896C68.2736 19.7533 70.6411 15.6719 73.6303 13.1457C70.3409 14.4736 67.0876 18.4376 65.1667 22.6735C64.188 22.0521 63.1929 21.4959 62.1897 21.0125C64.87 15.2901 71.0961 10.5142 77.9596 10.1408C73.3623 14.3119 75.0885 22.629 71.2137 27.5594L71.2184 27.5633ZM61.7739 31.4599C61.2664 30.3593 60.7565 28.5377 60.8175 27.4655C61.6704 27.4452 63.3111 27.7661 63.5709 27.827C63.4693 28.3306 63.4165 29.4351 63.4165 29.5773C63.579 29.2971 64.0299 28.3345 64.2127 27.9528C65.8533 28.2656 68.01 28.7892 69.2731 29.3784C67.7865 30.341 65.2668 31.3867 61.7739 31.4599V31.4599ZM34.6642 23.9788C32.8057 23.3121 32.8057 21.637 34.6642 20.9704C36.5226 20.3037 38.8586 21.1413 38.8586 22.4745C38.8586 23.8077 36.5226 24.6453 34.6642 23.9787V23.9788ZM40.8604 24.6005C40.8604 20.9205 36.8493 18.6078 33.6576 20.4478C30.4659 22.2878 30.4659 26.9132 33.6576 28.7532C36.8492 30.5932 40.8604 28.2809 40.8604 24.6005ZM51.5294 18.5635C45.5309 24.6431 47.8984 32.3351 50.0834 35.8073C46.9765 40.9774 40.8685 44.5105 33.7734 46.1186C41.7375 46.1186 46.4242 44.0678 49.1492 42.0615C50.8876 40.778 51.8295 39.515 52.3129 38.8127C64.123 39.5763 82.8209 43.3816 84.6443 44.6121C85.3754 45.1078 86.1309 46.1999 86.2444 47.248C77.3706 46.0052 61.3733 44.6977 57.1862 44.4783C60.1589 44.9008 81.8461 49.0067 85.6066 49.9692C84.4611 51.8334 81.8537 53.1532 77.9269 52.2355C80.051 55.127 75.9289 58.5954 70.1862 56.6869C71.4493 59.5258 66.3403 62.08 60.5286 59.1237C60.6018 61.9627 53.32 62.2916 50.4446 59.1521C50.5013 59.5258 50.8425 60.2404 50.989 60.5574C50.0628 68.8504 43.2686 73.996 36.3115 73.996C19.2789 73.996 4.43893 60.1591 4.43893 41.7538C4.43893 22.2966 18.8197 7.77367 36.1735 7.77367C46.1153 7.77367 50.6072 15.5998 51.5291 18.5645L51.5294 18.5635Z" fill="black"/>
</g>
</g>
</svg>