<?xml version="1.0" encoding="UTF-8"?>
<!--Generator: Apple Native CoreSVG 175-->
<!DOCTYPE svg
PUBLIC "-//W3C//DTD SVG 1.1//EN"
       "http://www.w3.org/Graphics/SVG/1.1/DTD/svg11.dtd">
<svg version="1.1" xmlns="http://www.w3.org/2000/svg" xmlns:xlink="http://www.w3.org/1999/xlink" width="3300" height="2200">
 <!--glyph: "", point size: 100.0, font version: "17.3d3e1", template writer version: "65.1"-->
 <g id="Notes">
  <rect height="2200" id="artboard" style="fill:white;opacity:1" width="3300" x="0" y="0"/>
  <line style="fill:none;stroke:black;opacity:1;stroke-width:0.5;" x1="263" x2="3036" y1="292" y2="292"/>
  <text style="stroke:none;fill:black;font-family:sans-serif;font-size:13;font-weight:bold;" transform="matrix(1 0 0 1 263 322)">Weight/Scale Variations</text>
  <text style="stroke:none;fill:black;font-family:sans-serif;font-size:13;text-anchor:middle;" transform="matrix(1 0 0 1 559.711 322)">Ultralight</text>
  <text style="stroke:none;fill:black;font-family:sans-serif;font-size:13;text-anchor:middle;" transform="matrix(1 0 0 1 856.422 322)">Thin</text>
  <text style="stroke:none;fill:black;font-family:sans-serif;font-size:13;text-anchor:middle;" transform="matrix(1 0 0 1 1153.13 322)">Light</text>
  <text style="stroke:none;fill:black;font-family:sans-serif;font-size:13;text-anchor:middle;" transform="matrix(1 0 0 1 1449.84 322)">Regular</text>
  <text style="stroke:none;fill:black;font-family:sans-serif;font-size:13;text-anchor:middle;" transform="matrix(1 0 0 1 1746.56 322)">Medium</text>
  <text style="stroke:none;fill:black;font-family:sans-serif;font-size:13;text-anchor:middle;" transform="matrix(1 0 0 1 2043.27 322)">Semibold</text>
  <text style="stroke:none;fill:black;font-family:sans-serif;font-size:13;text-anchor:middle;" transform="matrix(1 0 0 1 2339.98 322)">Bold</text>
  <text style="stroke:none;fill:black;font-family:sans-serif;font-size:13;text-anchor:middle;" transform="matrix(1 0 0 1 2636.69 322)">Heavy</text>
  <text style="stroke:none;fill:black;font-family:sans-serif;font-size:13;text-anchor:middle;" transform="matrix(1 0 0 1 2933.4 322)">Black</text>
  <line style="fill:none;stroke:black;opacity:1;stroke-width:0.5;" x1="263" x2="3036" y1="1903" y2="1903"/>
  <g transform="matrix(1 0 0 1 263 1933)">
   <path d="M9.24805 0.830078Q10.8691 0.830078 12.2949 0.214844Q13.7207-0.400391 14.8096-1.49414Q15.8984-2.58789 16.5186-4.01367Q17.1387-5.43945 17.1387-7.05078Q17.1387-8.66211 16.5186-10.0879Q15.8984-11.5137 14.8047-12.6074Q13.7109-13.7012 12.2852-14.3164Q10.8594-14.9316 9.23828-14.9316Q7.62695-14.9316 6.20117-14.3164Q4.77539-13.7012 3.69141-12.6074Q2.60742-11.5137 1.9873-10.0879Q1.36719-8.66211 1.36719-7.05078Q1.36719-5.43945 1.9873-4.01367Q2.60742-2.58789 3.69629-1.49414Q4.78516-0.400391 6.21094 0.214844Q7.63672 0.830078 9.24805 0.830078ZM9.24805-0.654297Q7.91992-0.654297 6.7627-1.14746Q5.60547-1.64062 4.73145-2.51953Q3.85742-3.39844 3.36426-4.56055Q2.87109-5.72266 2.87109-7.05078Q2.87109-8.37891 3.35938-9.54102Q3.84766-10.7031 4.72168-11.582Q5.5957-12.4609 6.75293-12.9541Q7.91016-13.4473 9.23828-13.4473Q10.5762-13.4473 11.7334-12.9541Q12.8906-12.4609 13.7695-11.582Q14.6484-10.7031 15.1465-9.54102Q15.6445-8.37891 15.6445-7.05078Q15.6445-5.72266 15.1514-4.56055Q14.6582-3.39844 13.7842-2.51953Q12.9102-1.64062 11.748-1.14746Q10.5859-0.654297 9.24805-0.654297ZM5.6543-7.05078Q5.6543-6.72852 5.85938-6.52832Q6.06445-6.32812 6.40625-6.32812L8.51562-6.32812L8.51562-4.20898Q8.51562-3.88672 8.71094-3.67676Q8.90625-3.4668 9.23828-3.4668Q9.56055-3.4668 9.77051-3.67676Q9.98047-3.88672 9.98047-4.20898L9.98047-6.32812L12.0898-6.32812Q12.4219-6.32812 12.627-6.52832Q12.832-6.72852 12.832-7.05078Q12.832-7.38281 12.627-7.58789Q12.4219-7.79297 12.0898-7.79297L9.98047-7.79297L9.98047-9.90234Q9.98047-10.2344 9.77051-10.4443Q9.56055-10.6543 9.23828-10.6543Q8.90625-10.6543 8.71094-10.4443Q8.51562-10.2344 8.51562-9.90234L8.51562-7.79297L6.40625-7.79297Q6.06445-7.79297 5.85938-7.58789Q5.6543-7.38281 5.6543-7.05078Z"/>
  </g>
  <g transform="matrix(1 0 0 1 281.867 1933)">
   <path d="M11.709 2.91016Q13.75 2.91016 15.5518 2.12891Q17.3535 1.34766 18.7305-0.0292969Q20.1074-1.40625 20.8887-3.20801Q21.6699-5.00977 21.6699-7.05078Q21.6699-9.0918 20.8887-10.8936Q20.1074-12.6953 18.7305-14.0723Q17.3535-15.4492 15.5469-16.2305Q13.7402-17.0117 11.6992-17.0117Q9.6582-17.0117 7.85645-16.2305Q6.05469-15.4492 4.68262-14.0723Q3.31055-12.6953 2.5293-10.8936Q1.74805-9.0918 1.74805-7.05078Q1.74805-5.00977 2.5293-3.20801Q3.31055-1.40625 4.6875-0.0292969Q6.06445 1.34766 7.86621 2.12891Q9.66797 2.91016 11.709 2.91016ZM11.709 1.25Q9.98047 1.25 8.47656 0.605469Q6.97266-0.0390625 5.83496-1.17676Q4.69727-2.31445 4.05762-3.81836Q3.41797-5.32227 3.41797-7.05078Q3.41797-8.7793 4.05762-10.2832Q4.69727-11.7871 5.83008-12.9297Q6.96289-14.0723 8.4668-14.7119Q9.9707-15.3516 11.6992-15.3516Q13.4277-15.3516 14.9316-14.7119Q16.4355-14.0723 17.5781-12.9297Q18.7207-11.7871 19.3652-10.2832Q20.0098-8.7793 20.0098-7.05078Q20.0098-5.32227 19.3701-3.81836Q18.7305-2.31445 17.5928-1.17676Q16.4551-0.0390625 14.9463 0.605469Q13.4375 1.25 11.709 1.25ZM7.17773-7.05078Q7.17773-6.69922 7.41211-6.47461Q7.64648-6.25 8.01758-6.25L10.8887-6.25L10.8887-3.36914Q10.8887-2.99805 11.1133-2.76855Q11.3379-2.53906 11.6895-2.53906Q12.0605-2.53906 12.29-2.76855Q12.5195-2.99805 12.5195-3.36914L12.5195-6.25L15.4004-6.25Q15.7715-6.25 16.001-6.47461Q16.2305-6.69922 16.2305-7.05078Q16.2305-7.42188 16.001-7.65137Q15.7715-7.88086 15.4004-7.88086L12.5195-7.88086L12.5195-10.752Q12.5195-11.1328 12.29-11.3623Q12.0605-11.5918 11.6895-11.5918Q11.3379-11.5918 11.1133-11.3574Q10.8887-11.123 10.8887-10.752L10.8887-7.88086L8.01758-7.88086Q7.63672-7.88086 7.40723-7.65137Q7.17773-7.42188 7.17773-7.05078Z"/>
  </g>
  <g transform="matrix(1 0 0 1 305.646 1933)">
   <path d="M14.9707 5.66406Q17.0605 5.66406 18.96 5.01465Q20.8594 4.36523 22.4512 3.19336Q24.043 2.02148 25.2197 0.429688Q26.3965-1.16211 27.0459-3.06641Q27.6953-4.9707 27.6953-7.05078Q27.6953-9.14062 27.0459-11.04Q26.3965-12.9395 25.2197-14.5312Q24.043-16.123 22.4512-17.2998Q20.8594-18.4766 18.9551-19.126Q17.0508-19.7754 14.9609-19.7754Q12.8711-19.7754 10.9717-19.126Q9.07227-18.4766 7.48535-17.2998Q5.89844-16.123 4.72168-14.5312Q3.54492-12.9395 2.90039-11.04Q2.25586-9.14062 2.25586-7.05078Q2.25586-4.9707 2.90527-3.06641Q3.55469-1.16211 4.72656 0.429688Q5.89844 2.02148 7.49023 3.19336Q9.08203 4.36523 10.9814 5.01465Q12.8809 5.66406 14.9707 5.66406ZM14.9707 3.84766Q13.1641 3.84766 11.5283 3.2959Q9.89258 2.74414 8.53516 1.74805Q7.17773 0.751953 6.17676-0.610352Q5.17578-1.97266 4.62891-3.6084Q4.08203-5.24414 4.08203-7.05078Q4.08203-8.86719 4.62891-10.5029Q5.17578-12.1387 6.17188-13.501Q7.16797-14.8633 8.52539-15.8594Q9.88281-16.8555 11.5186-17.4023Q13.1543-17.9492 14.9609-17.9492Q16.7773-17.9492 18.4131-17.4023Q20.0488-16.8555 21.4111-15.8594Q22.7734-14.8633 23.7695-13.501Q24.7656-12.1387 25.3174-10.5029Q25.8691-8.86719 25.8691-7.05078Q25.8789-5.24414 25.332-3.6084Q24.7852-1.97266 23.7842-0.610352Q22.7832 0.751953 21.4209 1.74805Q20.0586 2.74414 18.4229 3.2959Q16.7871 3.84766 14.9707 3.84766ZM9.19922-7.05078Q9.19922-6.66992 9.45801-6.4209Q9.7168-6.17188 10.1172-6.17188L14.0625-6.17188L14.0625-2.2168Q14.0625-1.81641 14.3115-1.55762Q14.5605-1.29883 14.9512-1.29883Q15.3516-1.29883 15.6104-1.55273Q15.8691-1.80664 15.8691-2.2168L15.8691-6.17188L19.8242-6.17188Q20.2246-6.17188 20.4785-6.4209Q20.7324-6.66992 20.7324-7.05078Q20.7324-7.46094 20.4785-7.71484Q20.2246-7.96875 19.8242-7.96875L15.8691-7.96875L15.8691-11.9141Q15.8691-12.3242 15.6104-12.583Q15.3516-12.8418 14.9512-12.8418Q14.5605-12.8418 14.3115-12.583Q14.0625-12.3242 14.0625-11.9141L14.0625-7.96875L10.1172-7.96875Q9.70703-7.96875 9.45312-7.71484Q9.19922-7.46094 9.19922-7.05078Z"/>
  </g>
  <text style="stroke:none;fill:black;font-family:sans-serif;font-size:13;font-weight:bold;" transform="matrix(1 0 0 1 263 1953)">Design Variations</text>
  <text style="stroke:none;fill:black;font-family:sans-serif;font-size:13;" transform="matrix(1 0 0 1 263 1971)">Symbols are supported in up to nine weights and three scales.</text>
  <text style="stroke:none;fill:black;font-family:sans-serif;font-size:13;" transform="matrix(1 0 0 1 263 1989)">For optimal layout with text and other symbols, vertically align</text>
  <text style="stroke:none;fill:black;font-family:sans-serif;font-size:13;" transform="matrix(1 0 0 1 263 2007)">symbols with the adjacent text.</text>
  <line style="fill:none;stroke:#00AEEF;stroke-width:0.5;opacity:1.0;" x1="776" x2="776" y1="1919" y2="1933"/>
  <g transform="matrix(1 0 0 1 776 1933)">
   <path d="M3.31055 0.15625Q3.70117 0.15625 3.91602-0.00976562Q4.13086-0.175781 4.26758-0.585938L5.52734-4.0332L11.2891-4.0332L12.5488-0.585938Q12.6855-0.175781 12.9004-0.00976562Q13.1152 0.15625 13.4961 0.15625Q13.8867 0.15625 14.1162-0.0585938Q14.3457-0.273438 14.3457-0.644531Q14.3457-0.869141 14.2383-1.17188L9.6582-13.3691Q9.48242-13.8184 9.17969-14.043Q8.87695-14.2676 8.4082-14.2676Q7.5-14.2676 7.17773-13.3789L2.59766-1.16211Q2.49023-0.859375 2.49023-0.634766Q2.49023-0.263672 2.70996-0.0537109Q2.92969 0.15625 3.31055 0.15625ZM6.00586-5.51758L8.37891-12.0898L8.42773-12.0898L10.8008-5.51758Z"/>
  </g>
  <line style="fill:none;stroke:#00AEEF;stroke-width:0.5;opacity:1.0;" x1="793.197" x2="793.197" y1="1919" y2="1933"/>
  <text style="stroke:none;fill:black;font-family:sans-serif;font-size:13;font-weight:bold;" transform="matrix(1 0 0 1 776 1953)">Margins</text>
  <text style="stroke:none;fill:black;font-family:sans-serif;font-size:13;" transform="matrix(1 0 0 1 776 1971)">Leading and trailing margins on the left and right side of each symbol</text>
  <text style="stroke:none;fill:black;font-family:sans-serif;font-size:13;" transform="matrix(1 0 0 1 776 1989)">can be adjusted by modifying the x-location of the margin guidelines.</text>
  <text style="stroke:none;fill:black;font-family:sans-serif;font-size:13;" transform="matrix(1 0 0 1 776 2007)">Modifications are automatically applied proportionally to all</text>
  <text style="stroke:none;fill:black;font-family:sans-serif;font-size:13;" transform="matrix(1 0 0 1 776 2025)">scales and weights.</text>
  <g transform="matrix(1 0 0 1 1289 1933)">
   <path d="M2.8418 1.86523L4.54102 3.57422Q5.18555 4.22852 5.90332 4.17969Q6.62109 4.13086 7.31445 3.35938L18.0078-8.42773L17.041-9.4043L6.42578 2.27539Q6.16211 2.57812 5.89355 2.61719Q5.625 2.65625 5.27344 2.30469L4.10156 1.14258Q3.75 0.791016 3.79395 0.522461Q3.83789 0.253906 4.14062-0.0195312L15.6152-10.8203L14.6387-11.7871L3.04688-0.898438Q2.30469-0.214844 2.25098 0.498047Q2.19727 1.21094 2.8418 1.86523ZM9.25781-16.3281Q8.94531-16.0254 8.90625-15.6348Q8.86719-15.2441 9.04297-14.9512Q9.21875-14.6777 9.55566-14.541Q9.89258-14.4043 10.3809-14.5215Q11.4746-14.7754 12.5977-14.7314Q13.7207-14.6875 14.7949-13.9844L14.209-12.5293Q13.9551-11.9043 14.0674-11.4404Q14.1797-10.9766 14.5801-10.5664L16.875-8.25195Q17.2363-7.88086 17.5781-7.82227Q17.9199-7.76367 18.3398-7.8418L19.4043-8.03711L20.0684-7.36328L20.0293-6.80664Q20-6.43555 20.1221-6.12305Q20.2441-5.81055 20.6055-5.44922L21.3672-4.70703Q21.7285-4.3457 22.1533-4.33105Q22.5781-4.31641 22.9297-4.66797L25.8398-7.58789Q26.1914-7.93945 26.1816-8.35449Q26.1719-8.76953 25.8105-9.13086L25.0391-9.89258Q24.6875-10.2539 24.3799-10.3857Q24.0723-10.5176 23.7109-10.4883L23.1348-10.4395L22.4902-11.0742L22.7344-12.1973Q22.832-12.6172 22.6953-12.9834Q22.5586-13.3496 22.1191-13.7891L19.9219-15.9766Q18.6719-17.2168 17.2607-17.8369Q15.8496-18.457 14.4189-18.4814Q12.9883-18.5059 11.665-17.959Q10.3418-17.4121 9.25781-16.3281ZM10.752-15.957Q11.6602-16.6211 12.7002-16.9043Q13.7402-17.1875 14.8047-17.085Q15.8691-16.9824 16.8701-16.5137Q17.8711-16.0449 18.7012-15.2051L21.1328-12.793Q21.3086-12.6172 21.3525-12.4512Q21.3965-12.2852 21.3379-12.0312L21.0156-10.5469L22.5195-9.0625L23.5059-9.12109Q23.6914-9.13086 23.7891-9.09668Q23.8867-9.0625 24.0332-8.91602L24.6094-8.33984L22.168-5.89844L21.5918-6.47461Q21.4453-6.62109 21.4062-6.71875Q21.3672-6.81641 21.377-7.01172L21.4453-7.98828L19.9512-9.47266L18.4277-9.21875Q18.1836-9.16992 18.042-9.2041Q17.9004-9.23828 17.7148-9.41406L15.7129-11.416Q15.5176-11.5918 15.4932-11.7529Q15.4688-11.9141 15.5859-12.1875L16.4648-14.2773Q15.293-15.3711 13.8281-15.791Q12.3633-16.2109 10.8398-15.7617Q10.7227-15.7324 10.6885-15.8057Q10.6543-15.8789 10.752-15.957Z"/>
  </g>
  <text style="stroke:none;fill:black;font-family:sans-serif;font-size:13;font-weight:bold;" transform="matrix(1 0 0 1 1289 1953)">Exporting</text>
  <text style="stroke:none;fill:black;font-family:sans-serif;font-size:13;" transform="matrix(1 0 0 1 1289 1971)">Symbols should be outlined when exporting to ensure the</text>
  <text style="stroke:none;fill:black;font-family:sans-serif;font-size:13;" transform="matrix(1 0 0 1 1289 1989)">design is preserved when submitting to Xcode.</text>
  <text id="template-version" style="stroke:none;fill:black;font-family:sans-serif;font-size:13;text-anchor:end;" transform="matrix(1 0 0 1 3036 1933)">Template v.2.0</text>
  <text style="stroke:none;fill:black;font-family:sans-serif;font-size:13;text-anchor:end;" transform="matrix(1 0 0 1 3036 1951)">Requires Xcode 12 or greater</text>
  <text id="descriptive-name" style="stroke:none;fill:black;font-family:sans-serif;font-size:13;text-anchor:end;" transform="matrix(1 0 0 1 3036 1969)">Generated from custom.pencil</text>
  <text style="stroke:none;fill:black;font-family:sans-serif;font-size:13;text-anchor:end;" transform="matrix(1 0 0 1 3036 1987)">Typeset at 100 points</text>
  <text style="stroke:none;fill:black;font-family:sans-serif;font-size:13;" transform="matrix(1 0 0 1 263 726)">Small</text>
  <text style="stroke:none;fill:black;font-family:sans-serif;font-size:13;" transform="matrix(1 0 0 1 263 1156)">Medium</text>
  <text style="stroke:none;fill:black;font-family:sans-serif;font-size:13;" transform="matrix(1 0 0 1 263 1586)">Large</text>
 </g>
 <g id="Guides">
  <g id="H-reference" style="fill:#27AAE1;stroke:none;" transform="matrix(1 0 0 1 339 696)">
   <path d="M0.993347 0L3.6377 0L29.3282-67.1326L30.0301-67.1326L30.0301-70.459L28.1227-70.459ZM11.6882-24.4797L46.9818-24.4797L46.2311-26.7288L12.4382-26.7288ZM55.1193 0L57.7637 0L30.6381-70.459L29.4327-70.459L29.4327-67.1326Z"/>
  </g>
  <line id="Baseline-S" style="fill:none;stroke:#27AAE1;opacity:1;stroke-width:0.5;" x1="263" x2="3036" y1="696" y2="696"/>
  <line id="Capline-S" style="fill:none;stroke:#27AAE1;opacity:1;stroke-width:0.5;" x1="263" x2="3036" y1="625.541" y2="625.541"/>
  <g id="H-reference" style="fill:#27AAE1;stroke:none;" transform="matrix(1 0 0 1 339 1126)">
   <path d="M0.993347 0L3.6377 0L29.3282-67.1326L30.0301-67.1326L30.0301-70.459L28.1227-70.459ZM11.6882-24.4797L46.9818-24.4797L46.2311-26.7288L12.4382-26.7288ZM55.1193 0L57.7637 0L30.6381-70.459L29.4327-70.459L29.4327-67.1326Z"/>
  </g>
  <line id="Baseline-M" style="fill:none;stroke:#27AAE1;opacity:1;stroke-width:0.5;" x1="263" x2="3036" y1="1126" y2="1126"/>
  <line id="Capline-M" style="fill:none;stroke:#27AAE1;opacity:1;stroke-width:0.5;" x1="263" x2="3036" y1="1055.54" y2="1055.54"/>
  <g id="H-reference" style="fill:#27AAE1;stroke:none;" transform="matrix(1 0 0 1 339 1556)">
   <path d="M0.993347 0L3.6377 0L29.3282-67.1326L30.0301-67.1326L30.0301-70.459L28.1227-70.459ZM11.6882-24.4797L46.9818-24.4797L46.2311-26.7288L12.4382-26.7288ZM55.1193 0L57.7637 0L30.6381-70.459L29.4327-70.459L29.4327-67.1326Z"/>
  </g>
  <line id="Baseline-L" style="fill:none;stroke:#27AAE1;opacity:1;stroke-width:0.5;" x1="263" x2="3036" y1="1556" y2="1556"/>
  <line id="Capline-L" style="fill:none;stroke:#27AAE1;opacity:1;stroke-width:0.5;" x1="263" x2="3036" y1="1485.54" y2="1485.54"/>
  <line id="left-margin" style="fill:none;stroke:#00AEEF;stroke-width:0.5;opacity:1.0;" x1="1385.454" x2="1385.454" y1="1030.78" y2="1150.12"/>
  <line id="right-margin" style="fill:none;stroke:#00AEEF;stroke-width:0.5;opacity:1.0;" x1="1514.236" x2="1514.236" y1="1030.78" y2="1150.12"/>
 </g>
 <g id="Symbols">
  
  
  
  
  
  
  
  
  
  
  
  
  
  
  
  
  
  
  <g id="Black-S" transform="matrix(3.0694137500000016 0 0 3.0694137500000016 2884.28438 611.65988)"><g transform="scale(0.9696969696969697 0.9696969696969697)"><g clip-path="url(#clip0_85_458)">
<path d="M10.5827 17.2503C10.476 17.2837 10.3827 17.3463 10.3133 17.4303C10.2493 17.5263 10.216 17.641 10.22 17.757C10.22 17.957 10.2706 18.093 10.38 18.1676C10.4826 18.2423 10.6386 18.277 10.8493 18.277C10.9653 18.277 11.0813 18.2503 11.2013 18.197C11.3213 18.1463 11.4333 18.0703 11.528 17.977V17.097C11.304 17.117 11.124 17.137 10.988 17.157C10.848 17.1703 10.712 17.2023 10.5826 17.2503H10.5827ZM16.6693 0.916992L0.669312 16.917L16.6693 32.917L32.6693 16.917L16.6693 0.916992ZM16.6693 26.7263C11.2533 26.7237 6.86266 22.3343 6.85997 16.917C6.86262 11.501 11.2533 7.10899 16.6693 7.10634C22.0867 7.10899 26.476 11.4997 26.4787 16.917C26.476 22.3343 22.0867 26.7236 16.6693 26.7263ZM16.6693 8.08634V8.08899C11.7973 8.08899 7.84266 12.0436 7.84266 16.9156C7.84266 21.7876 11.7973 25.7423 16.6693 25.7423C21.5413 25.7423 25.496 21.7876 25.496 16.9156C25.496 12.041 21.544 8.08899 16.6693 8.08631V8.08634ZM12.8533 19.081H11.5267V18.633L11.284 18.8383C11.0947 18.9823 10.8787 19.089 10.648 19.149C10.5387 19.1756 10.3787 19.1956 10.1787 19.1956C9.82931 19.205 9.492 19.0663 9.248 18.8156C8.99866 18.5623 8.87866 18.2476 8.87866 17.861C8.87866 17.5436 8.94 17.2916 9.06531 17.0956C9.19866 16.8956 9.38531 16.7356 9.60531 16.6316C9.87866 16.5116 10.1693 16.429 10.4667 16.3916C10.8 16.3476 11.1547 16.3116 11.5373 16.2876V16.265C11.5373 16.0303 11.4493 15.869 11.276 15.781C11.1026 15.6876 10.8466 15.645 10.5026 15.645C10.3466 15.645 10.164 15.6716 9.95597 15.729C9.74531 15.7876 9.54531 15.8623 9.34531 15.9476H9.22931V14.921C9.35866 14.881 9.57065 14.8383 9.86931 14.7876C10.1587 14.7343 10.4533 14.7076 10.7533 14.7076C11.4867 14.7076 12.02 14.8303 12.3533 15.0756C12.6867 15.3196 12.8533 15.6916 12.8533 16.1916V19.081ZM17.1467 18.8583C17.0533 18.8957 16.968 18.933 16.88 18.973C16.7813 19.013 16.68 19.0503 16.5733 19.0796C16.448 19.1116 16.3253 19.1383 16.2133 19.1596C16.1013 19.1783 15.952 19.189 15.7653 19.189C15.4147 19.189 15.0907 19.145 14.8013 19.0556C14.5213 18.973 14.26 18.8356 14.0413 18.6463C13.824 18.457 13.652 18.2196 13.544 17.953C13.424 17.673 13.364 17.3436 13.364 16.969C13.3533 16.609 13.42 16.2556 13.5587 15.929C13.6787 15.657 13.8573 15.417 14.0813 15.2223C14.3013 15.0436 14.5547 14.9116 14.828 14.8356C15.1213 14.7476 15.424 14.7076 15.728 14.7076C16.2213 14.7076 16.704 14.8236 17.1413 15.0476V16.1863H16.972C16.908 16.129 16.844 16.073 16.776 16.021C16.696 15.957 16.6133 15.901 16.5253 15.853C16.3027 15.7263 16.0493 15.661 15.792 15.6663C15.4533 15.6663 15.192 15.781 15.0053 16.017C14.8213 16.253 14.7253 16.569 14.7253 16.969C14.7253 17.3956 14.8253 17.7156 15.0253 17.9223C15.2253 18.1316 15.488 18.2356 15.8147 18.2356C15.9613 18.2356 16.1107 18.2183 16.2547 18.1796C16.4587 18.1223 16.648 18.0196 16.808 17.8796C16.872 17.8263 16.9253 17.7703 16.972 17.733H17.1453L17.1467 18.8583ZM22.924 19.089V16.9596C22.924 16.7503 22.924 16.573 22.9146 16.4303C22.912 16.3103 22.888 16.1903 22.8453 16.0796C22.8146 15.9916 22.7519 15.9196 22.6719 15.8796C22.4679 15.7943 22.2386 15.7956 22.0346 15.8823C21.9199 15.9356 21.8106 15.9983 21.7092 16.069V19.0863H20.3852V16.9596C20.3852 16.7516 20.3812 16.5783 20.3719 16.4316C20.3679 16.3116 20.3452 16.1916 20.3052 16.0796C20.2692 15.9916 20.2039 15.9196 20.1239 15.8796C20.0439 15.8356 19.9306 15.8156 19.7906 15.8156C19.6799 15.8156 19.5706 15.8423 19.4706 15.8903C19.3666 15.9436 19.2679 16.005 19.1666 16.0716V19.0876H17.8399V14.837H19.1639V15.3116C19.3559 15.145 19.5586 15.001 19.7772 14.881C19.9746 14.7743 20.1959 14.721 20.4226 14.721C20.6652 14.7156 20.9026 14.781 21.1079 14.9076C21.3119 15.041 21.4679 15.233 21.5613 15.4596C21.8146 15.2236 22.0546 15.041 22.2813 14.913C22.5079 14.785 22.7346 14.7196 22.9679 14.7196C23.1493 14.717 23.3279 14.7503 23.4959 14.8196C23.6493 14.8783 23.7893 14.9743 23.8959 15.0996C24.0159 15.241 24.1093 15.4063 24.1626 15.585C24.2226 15.7743 24.2506 16.0223 24.2506 16.3223V19.0903L22.924 19.089Z" fill="black"/>
</g><defs>
<clipPath id="clip0_85_458">
<rect width="32" height="32" fill="white" transform="translate(0.669312 0.916992)"/>
</clipPath>
</defs></g></g>
  
  
  
  
  <g id="Regular-S" transform="matrix(2.9196862500000016 0 0 2.9196862500000016 1403.13002 614.0555200000001)"><g transform="scale(0.9696969696969697 0.9696969696969697)"><g clip-path="url(#clip0_85_458)">
<path d="M10.5827 17.2503C10.476 17.2837 10.3827 17.3463 10.3133 17.4303C10.2493 17.5263 10.216 17.641 10.22 17.757C10.22 17.957 10.2706 18.093 10.38 18.1676C10.4826 18.2423 10.6386 18.277 10.8493 18.277C10.9653 18.277 11.0813 18.2503 11.2013 18.197C11.3213 18.1463 11.4333 18.0703 11.528 17.977V17.097C11.304 17.117 11.124 17.137 10.988 17.157C10.848 17.1703 10.712 17.2023 10.5826 17.2503H10.5827ZM16.6693 0.916992L0.669312 16.917L16.6693 32.917L32.6693 16.917L16.6693 0.916992ZM16.6693 26.7263C11.2533 26.7237 6.86266 22.3343 6.85997 16.917C6.86262 11.501 11.2533 7.10899 16.6693 7.10634C22.0867 7.10899 26.476 11.4997 26.4787 16.917C26.476 22.3343 22.0867 26.7236 16.6693 26.7263ZM16.6693 8.08634V8.08899C11.7973 8.08899 7.84266 12.0436 7.84266 16.9156C7.84266 21.7876 11.7973 25.7423 16.6693 25.7423C21.5413 25.7423 25.496 21.7876 25.496 16.9156C25.496 12.041 21.544 8.08899 16.6693 8.08631V8.08634ZM12.8533 19.081H11.5267V18.633L11.284 18.8383C11.0947 18.9823 10.8787 19.089 10.648 19.149C10.5387 19.1756 10.3787 19.1956 10.1787 19.1956C9.82931 19.205 9.492 19.0663 9.248 18.8156C8.99866 18.5623 8.87866 18.2476 8.87866 17.861C8.87866 17.5436 8.94 17.2916 9.06531 17.0956C9.19866 16.8956 9.38531 16.7356 9.60531 16.6316C9.87866 16.5116 10.1693 16.429 10.4667 16.3916C10.8 16.3476 11.1547 16.3116 11.5373 16.2876V16.265C11.5373 16.0303 11.4493 15.869 11.276 15.781C11.1026 15.6876 10.8466 15.645 10.5026 15.645C10.3466 15.645 10.164 15.6716 9.95597 15.729C9.74531 15.7876 9.54531 15.8623 9.34531 15.9476H9.22931V14.921C9.35866 14.881 9.57065 14.8383 9.86931 14.7876C10.1587 14.7343 10.4533 14.7076 10.7533 14.7076C11.4867 14.7076 12.02 14.8303 12.3533 15.0756C12.6867 15.3196 12.8533 15.6916 12.8533 16.1916V19.081ZM17.1467 18.8583C17.0533 18.8957 16.968 18.933 16.88 18.973C16.7813 19.013 16.68 19.0503 16.5733 19.0796C16.448 19.1116 16.3253 19.1383 16.2133 19.1596C16.1013 19.1783 15.952 19.189 15.7653 19.189C15.4147 19.189 15.0907 19.145 14.8013 19.0556C14.5213 18.973 14.26 18.8356 14.0413 18.6463C13.824 18.457 13.652 18.2196 13.544 17.953C13.424 17.673 13.364 17.3436 13.364 16.969C13.3533 16.609 13.42 16.2556 13.5587 15.929C13.6787 15.657 13.8573 15.417 14.0813 15.2223C14.3013 15.0436 14.5547 14.9116 14.828 14.8356C15.1213 14.7476 15.424 14.7076 15.728 14.7076C16.2213 14.7076 16.704 14.8236 17.1413 15.0476V16.1863H16.972C16.908 16.129 16.844 16.073 16.776 16.021C16.696 15.957 16.6133 15.901 16.5253 15.853C16.3027 15.7263 16.0493 15.661 15.792 15.6663C15.4533 15.6663 15.192 15.781 15.0053 16.017C14.8213 16.253 14.7253 16.569 14.7253 16.969C14.7253 17.3956 14.8253 17.7156 15.0253 17.9223C15.2253 18.1316 15.488 18.2356 15.8147 18.2356C15.9613 18.2356 16.1107 18.2183 16.2547 18.1796C16.4587 18.1223 16.648 18.0196 16.808 17.8796C16.872 17.8263 16.9253 17.7703 16.972 17.733H17.1453L17.1467 18.8583ZM22.924 19.089V16.9596C22.924 16.7503 22.924 16.573 22.9146 16.4303C22.912 16.3103 22.888 16.1903 22.8453 16.0796C22.8146 15.9916 22.7519 15.9196 22.6719 15.8796C22.4679 15.7943 22.2386 15.7956 22.0346 15.8823C21.9199 15.9356 21.8106 15.9983 21.7092 16.069V19.0863H20.3852V16.9596C20.3852 16.7516 20.3812 16.5783 20.3719 16.4316C20.3679 16.3116 20.3452 16.1916 20.3052 16.0796C20.2692 15.9916 20.2039 15.9196 20.1239 15.8796C20.0439 15.8356 19.9306 15.8156 19.7906 15.8156C19.6799 15.8156 19.5706 15.8423 19.4706 15.8903C19.3666 15.9436 19.2679 16.005 19.1666 16.0716V19.0876H17.8399V14.837H19.1639V15.3116C19.3559 15.145 19.5586 15.001 19.7772 14.881C19.9746 14.7743 20.1959 14.721 20.4226 14.721C20.6652 14.7156 20.9026 14.781 21.1079 14.9076C21.3119 15.041 21.4679 15.233 21.5613 15.4596C21.8146 15.2236 22.0546 15.041 22.2813 14.913C22.5079 14.785 22.7346 14.7196 22.9679 14.7196C23.1493 14.717 23.3279 14.7503 23.4959 14.8196C23.6493 14.8783 23.7893 14.9743 23.8959 15.0996C24.0159 15.241 24.1093 15.4063 24.1626 15.585C24.2226 15.7743 24.2506 16.0223 24.2506 16.3223V19.0903L22.924 19.089Z" fill="black"/>
</g><defs>
<clipPath id="clip0_85_458">
<rect width="32" height="32" fill="white" transform="translate(0.669312 0.916992)"/>
</clipPath>
</defs></g></g>
  
  
  <g id="Ultralight-S" transform="matrix(2.9047135000000015 0 0 2.9047135000000015 513.2395840000001 614.2950840000001)"><g transform="scale(0.9696969696969697 0.9696969696969697)"><g clip-path="url(#clip0_85_458)">
<path d="M10.5827 17.2503C10.476 17.2837 10.3827 17.3463 10.3133 17.4303C10.2493 17.5263 10.216 17.641 10.22 17.757C10.22 17.957 10.2706 18.093 10.38 18.1676C10.4826 18.2423 10.6386 18.277 10.8493 18.277C10.9653 18.277 11.0813 18.2503 11.2013 18.197C11.3213 18.1463 11.4333 18.0703 11.528 17.977V17.097C11.304 17.117 11.124 17.137 10.988 17.157C10.848 17.1703 10.712 17.2023 10.5826 17.2503H10.5827ZM16.6693 0.916992L0.669312 16.917L16.6693 32.917L32.6693 16.917L16.6693 0.916992ZM16.6693 26.7263C11.2533 26.7237 6.86266 22.3343 6.85997 16.917C6.86262 11.501 11.2533 7.10899 16.6693 7.10634C22.0867 7.10899 26.476 11.4997 26.4787 16.917C26.476 22.3343 22.0867 26.7236 16.6693 26.7263ZM16.6693 8.08634V8.08899C11.7973 8.08899 7.84266 12.0436 7.84266 16.9156C7.84266 21.7876 11.7973 25.7423 16.6693 25.7423C21.5413 25.7423 25.496 21.7876 25.496 16.9156C25.496 12.041 21.544 8.08899 16.6693 8.08631V8.08634ZM12.8533 19.081H11.5267V18.633L11.284 18.8383C11.0947 18.9823 10.8787 19.089 10.648 19.149C10.5387 19.1756 10.3787 19.1956 10.1787 19.1956C9.82931 19.205 9.492 19.0663 9.248 18.8156C8.99866 18.5623 8.87866 18.2476 8.87866 17.861C8.87866 17.5436 8.94 17.2916 9.06531 17.0956C9.19866 16.8956 9.38531 16.7356 9.60531 16.6316C9.87866 16.5116 10.1693 16.429 10.4667 16.3916C10.8 16.3476 11.1547 16.3116 11.5373 16.2876V16.265C11.5373 16.0303 11.4493 15.869 11.276 15.781C11.1026 15.6876 10.8466 15.645 10.5026 15.645C10.3466 15.645 10.164 15.6716 9.95597 15.729C9.74531 15.7876 9.54531 15.8623 9.34531 15.9476H9.22931V14.921C9.35866 14.881 9.57065 14.8383 9.86931 14.7876C10.1587 14.7343 10.4533 14.7076 10.7533 14.7076C11.4867 14.7076 12.02 14.8303 12.3533 15.0756C12.6867 15.3196 12.8533 15.6916 12.8533 16.1916V19.081ZM17.1467 18.8583C17.0533 18.8957 16.968 18.933 16.88 18.973C16.7813 19.013 16.68 19.0503 16.5733 19.0796C16.448 19.1116 16.3253 19.1383 16.2133 19.1596C16.1013 19.1783 15.952 19.189 15.7653 19.189C15.4147 19.189 15.0907 19.145 14.8013 19.0556C14.5213 18.973 14.26 18.8356 14.0413 18.6463C13.824 18.457 13.652 18.2196 13.544 17.953C13.424 17.673 13.364 17.3436 13.364 16.969C13.3533 16.609 13.42 16.2556 13.5587 15.929C13.6787 15.657 13.8573 15.417 14.0813 15.2223C14.3013 15.0436 14.5547 14.9116 14.828 14.8356C15.1213 14.7476 15.424 14.7076 15.728 14.7076C16.2213 14.7076 16.704 14.8236 17.1413 15.0476V16.1863H16.972C16.908 16.129 16.844 16.073 16.776 16.021C16.696 15.957 16.6133 15.901 16.5253 15.853C16.3027 15.7263 16.0493 15.661 15.792 15.6663C15.4533 15.6663 15.192 15.781 15.0053 16.017C14.8213 16.253 14.7253 16.569 14.7253 16.969C14.7253 17.3956 14.8253 17.7156 15.0253 17.9223C15.2253 18.1316 15.488 18.2356 15.8147 18.2356C15.9613 18.2356 16.1107 18.2183 16.2547 18.1796C16.4587 18.1223 16.648 18.0196 16.808 17.8796C16.872 17.8263 16.9253 17.7703 16.972 17.733H17.1453L17.1467 18.8583ZM22.924 19.089V16.9596C22.924 16.7503 22.924 16.573 22.9146 16.4303C22.912 16.3103 22.888 16.1903 22.8453 16.0796C22.8146 15.9916 22.7519 15.9196 22.6719 15.8796C22.4679 15.7943 22.2386 15.7956 22.0346 15.8823C21.9199 15.9356 21.8106 15.9983 21.7092 16.069V19.0863H20.3852V16.9596C20.3852 16.7516 20.3812 16.5783 20.3719 16.4316C20.3679 16.3116 20.3452 16.1916 20.3052 16.0796C20.2692 15.9916 20.2039 15.9196 20.1239 15.8796C20.0439 15.8356 19.9306 15.8156 19.7906 15.8156C19.6799 15.8156 19.5706 15.8423 19.4706 15.8903C19.3666 15.9436 19.2679 16.005 19.1666 16.0716V19.0876H17.8399V14.837H19.1639V15.3116C19.3559 15.145 19.5586 15.001 19.7772 14.881C19.9746 14.7743 20.1959 14.721 20.4226 14.721C20.6652 14.7156 20.9026 14.781 21.1079 14.9076C21.3119 15.041 21.4679 15.233 21.5613 15.4596C21.8146 15.2236 22.0546 15.041 22.2813 14.913C22.5079 14.785 22.7346 14.7196 22.9679 14.7196C23.1493 14.717 23.3279 14.7503 23.4959 14.8196C23.6493 14.8783 23.7893 14.9743 23.8959 15.0996C24.0159 15.241 24.1093 15.4063 24.1626 15.585C24.2226 15.7743 24.2506 16.0223 24.2506 16.3223V19.0903L22.924 19.089Z" fill="black"/>
</g><defs>
<clipPath id="clip0_85_458">
<rect width="32" height="32" fill="white" transform="translate(0.669312 0.916992)"/>
</clipPath>
</defs></g></g>
 </g>
</svg>