<svg width="33" height="33" viewBox="0 0 33 33" fill="none" xmlns="http://www.w3.org/2000/svg">
<path d="M14.6827 14.2676V10.649C14.6827 10.241 15.0133 9.91034 15.4213 9.91034H17.9693C18.3773 9.91034 18.708 10.241 18.708 10.649V17.273C18.708 17.3743 18.6573 17.4516 18.6067 17.5276L17.9693 18.165C17.816 18.3183 17.816 18.5476 17.9693 18.6743L18.6067 19.3117C18.6827 19.3877 18.708 19.465 18.708 19.5663V23.1837C18.708 23.5917 18.3773 23.9223 17.9693 23.9223H15.4213C15.0133 23.9223 14.6827 23.5917 14.6827 23.1837V16.5597C14.6827 16.4583 14.7333 16.381 14.784 16.305L15.4214 15.6677C15.5747 15.5143 15.5747 15.285 15.4214 15.1583L14.784 14.521C14.708 14.445 14.6827 14.369 14.6827 14.2676ZM26.172 16.917C26.172 11.669 21.9173 7.41434 16.6693 7.41434C11.4213 7.41434 7.16669 11.669 7.16669 16.917C7.16669 22.165 11.4213 26.4196 16.6693 26.4196C21.9173 26.4196 26.172 22.165 26.172 16.917ZM29.1787 16.917C29.1787 23.821 23.5733 29.401 16.6947 29.401C9.79069 29.401 4.21069 23.7956 4.21069 16.917C4.21069 10.013 9.81603 4.43299 16.6947 4.43299C23.5733 4.43299 29.1787 10.013 29.1787 16.917ZM1.688 16.917C1.688 25.197 8.388 31.8983 16.6693 31.8983C24.9507 31.8983 31.6507 25.197 31.6507 16.917C31.6507 8.63699 24.9493 1.93565 16.6693 1.93565C8.38934 1.93565 1.688 8.63699 1.688 16.917ZM0.669342 16.917C0.669342 8.07565 7.828 0.916992 16.6693 0.916992C25.5107 0.916992 32.6693 8.07565 32.6693 16.917C32.6693 25.7583 25.5107 32.917 16.6693 32.917C7.828 32.917 0.669342 25.7583 0.669342 16.917Z" fill="black"/>
</svg>
