<svg width="33" height="9" viewBox="0 0 33 9" fill="none" xmlns="http://www.w3.org/2000/svg">
<path d="M10.588 0.930374C8.38742 0.933405 6.60436 2.7165 6.60133 4.91675V4.91703C6.60361 7.11787 8.38714 8.90144 10.5878 8.90369H10.588C12.7885 8.90066 14.5716 7.11756 14.5746 4.91731V4.91703C14.5724 2.71619 12.7888 0.932624 10.5882 0.930374H10.588ZM10.588 8.05437C8.85864 8.05437 7.44933 6.64637 7.44933 4.91703C7.44933 3.18769 8.85867 1.77969 10.588 1.77969C12.3173 1.77969 13.7253 3.18769 13.7253 4.91703C13.7253 6.64637 12.3173 8.05437 10.588 8.05437ZM19.2173 0.930374C17.0168 0.933405 15.2337 2.7165 15.2307 4.91675V4.91703C15.233 7.11787 17.0165 8.90144 19.2171 8.90369H19.2173C21.4179 8.90066 23.201 7.11756 23.204 4.91731V4.91703C23.201 2.71647 21.4179 0.933405 19.2176 0.930374H19.2173ZM19.2173 8.05437C17.4867 8.05437 16.08 6.64637 16.08 4.91703C16.08 3.18769 17.4866 1.77969 19.2173 1.77969C20.9467 1.77969 22.3547 3.18769 22.3547 4.91703C22.3547 6.64637 20.9467 8.05437 19.2173 8.05437ZM3.73467 3.32103C3.61314 3.30234 3.47295 3.29165 3.33027 3.29165C2.67745 3.29165 2.07683 3.51506 1.60067 3.88956L1.6067 3.885V1.77166H5.18936C5.31336 1.77166 5.4027 1.749 5.4027 1.38231C5.4027 1.02365 5.2587 1.00897 5.1627 1.00897H1.19736C0.965361 1.00897 0.844017 1.19562 0.844017 1.40097V4.87031C0.844017 5.05166 0.960017 5.11431 1.17336 5.15565C1.36136 5.193 1.4707 5.17166 1.55336 5.07966L1.56136 5.06631C1.9387 4.52231 2.76136 3.99431 3.5427 4.09031C4.4747 4.20497 5.22536 4.94897 5.32936 5.85966C5.3378 5.92887 5.34261 6.00903 5.34261 6.09031C5.34261 7.20322 4.44083 8.1055 3.32811 8.10631H3.32802C2.48136 8.10631 1.74136 7.56231 1.43336 6.77166C1.3867 6.65431 1.3107 6.569 0.976017 6.689C0.670674 6.79966 0.652017 6.93034 0.693361 7.04634C1.09795 8.13141 2.12386 8.89087 3.32761 8.89434H3.32805C4.8693 8.88562 6.11536 7.63419 6.11536 6.09172C6.11536 4.69281 5.09045 3.53325 3.75055 3.32306L3.73474 3.32103H3.73467ZM25.9293 0.96903C24.856 1.05169 24.0173 1.99437 24.0173 3.11569V6.66369C24.0173 6.86903 24.1733 6.91169 24.408 6.91169C24.6426 6.91169 24.7986 6.87034 24.7986 6.66369V3.10634C24.7986 2.40769 25.308 1.80769 25.956 1.741C25.9977 1.73622 26.0461 1.7335 26.0951 1.7335C26.4312 1.7335 26.7374 1.86144 26.9677 2.07125L26.9667 2.07031C27.2309 2.31119 27.396 2.65681 27.396 3.041C27.396 3.04147 27.396 3.0419 27.396 3.04237V3.04231C27.396 3.14897 27.344 3.49565 27.1067 3.81697C26.9267 4.05962 26.5853 4.34897 25.9813 4.34897H25.9693C25.816 4.34897 25.6827 4.35562 25.6573 4.72231C25.64 4.97031 25.6413 5.08097 25.8547 5.10897C26.236 5.16231 26.6227 5.08762 27.008 4.88762C27.664 4.54628 28.104 3.89962 28.156 3.19828C28.1598 3.15097 28.162 3.09587 28.162 3.04028C28.162 2.46584 27.9295 1.94569 27.5533 1.5689L27.5534 1.56894C27.1773 1.1945 26.6586 0.96303 26.0859 0.96303C26.0308 0.96303 25.9762 0.965186 25.9222 0.969374L25.9294 0.968937L25.9293 0.96903ZM31.1547 3.04769L32.6013 1.60103C32.6547 1.54903 32.7773 1.42503 32.528 1.16903C32.4213 1.05837 32.324 1.00237 32.2386 1.00237H32.2373C32.1726 1.00391 32.115 1.03347 32.0762 1.07937L32.076 1.07969L30.6253 2.53034L29.1773 1.073C29.06 0.955656 28.924 0.983654 28.748 1.15965C28.568 1.341 28.5386 1.47965 28.656 1.597L30.104 3.053L28.676 4.481C28.6413 4.51434 28.5893 4.565 28.5893 4.64766C28.588 4.73166 28.6453 4.833 28.7573 4.945C28.8507 5.03965 28.9413 5.08766 29.024 5.08766C29.116 5.08766 29.176 5.02766 29.2093 4.99431L30.6333 3.57166L32.088 5.02766C32.1267 5.06481 32.1794 5.08766 32.2374 5.08766C32.2383 5.08766 32.2392 5.08766 32.2401 5.08762H32.2426C32.3346 5.08762 32.432 5.03428 32.532 4.93028C32.6946 4.75828 32.7226 4.61562 32.6133 4.50494L31.1547 3.04769Z" fill="black"/>
</svg>
