<svg width="33" height="33" viewBox="0 0 33 33" fill="none" xmlns="http://www.w3.org/2000/svg">
<g clip-path="url(#clip0_85_413)">
<path d="M32.6694 17.5303C32.6694 24.5996 26.9386 30.3303 19.8694 30.3303C12.8001 30.3303 7.06936 24.5996 7.06936 17.5303H8.49601C8.49601 23.8116 13.588 28.9037 19.8694 28.9037C26.1507 28.9037 31.2427 23.8117 31.2427 17.5303C31.2427 11.249 26.1507 6.15697 19.8694 6.15697V4.73032C26.9386 4.73032 32.6694 10.4611 32.6694 17.5303ZM19.8694 13.2636C17.513 13.2636 15.6027 15.1739 15.6027 17.5303C15.6027 19.8867 17.513 21.7969 19.8694 21.7969C22.2258 21.7969 24.136 19.8867 24.136 17.5303C24.136 15.1739 22.2258 13.2636 19.8694 13.2636ZM17.2027 13.2636L16.4027 4.37029L13.1227 6.93029L11.176 5.01029C10.0909 4.06782 8.66404 3.49341 7.10308 3.49341C5.82995 3.49341 4.64604 3.87551 3.65983 4.53129L3.68273 4.51698L0.989388 6.25032C0.79792 6.38166 0.67392 6.59932 0.67392 6.84591C0.67392 6.99126 0.716982 7.12657 0.791076 7.23973L0.789388 7.23698C0.920732 7.42844 1.13839 7.55245 1.38498 7.55245C1.53033 7.55245 1.66564 7.50938 1.77879 7.43529L1.77604 7.43698L4.4427 5.69032C5.19211 5.19304 6.11248 4.89688 7.10201 4.89688C8.26642 4.89688 9.33504 5.30695 10.1714 5.99051L10.1627 5.98363L11.9893 7.82363L8.93598 10.2503L17.2027 13.2636Z" fill="black"/>
</g>
<defs>
<clipPath id="clip0_85_413">
<rect width="32" height="32" fill="white" transform="translate(0.669342 0.916992)"/>
</clipPath>
</defs>
</svg>
