<svg width="33" height="33" viewBox="0 0 33 33" fill="none" xmlns="http://www.w3.org/2000/svg">
<g clip-path="url(#clip0_85_422)">
<path d="M26.7173 13.117C24.8867 13.117 23.8733 14.469 23.6587 15.9384H29.8027C29.636 14.5384 28.6467 13.1184 26.7173 13.1184V13.117ZM23.704 17.941C24.0173 19.4824 25.2947 20.5677 27.08 20.5677C28.0467 20.5677 29.44 20.2077 30.2587 19.349L31.8253 21.149C30.4067 22.629 28.288 23.0504 26.8387 23.0504C23.3187 23.0504 20.576 20.509 20.576 16.909C20.576 13.529 23.1013 10.749 26.6693 10.749C30.116 10.749 32.6693 13.389 32.6693 16.8877V17.909H23.7053L23.704 17.941ZM15.0547 23.0477V15.461C15.0547 14.1597 14.4747 13.413 13.2707 13.413C12.1853 13.413 11.464 14.193 10.9813 14.7557V23.0757H7.848V15.4757C7.848 14.1743 7.29466 13.433 6.09066 13.433C5.00666 13.433 4.25731 14.2144 3.80131 14.7744V23.0944H0.669312V10.9277H3.80266V12.461C4.336 11.8424 5.53866 10.781 7.416 10.781C9.07866 10.781 10.2107 11.481 10.7187 12.901C11.4173 11.885 12.7187 10.781 14.5987 10.781C16.8653 10.781 18.1853 12.1277 18.1853 14.7304V23.0504H15.048L15.0547 23.0477Z" fill="black"/>
</g>
<defs>
<clipPath id="clip0_85_422">
<rect width="32" height="32" fill="white" transform="translate(0.669342 0.916992)"/>
</clipPath>
</defs>
</svg>
