<svg width="33" height="33" viewBox="0 0 33 33" fill="none" xmlns="http://www.w3.org/2000/svg">
<g clip-path="url(#clip0_85_431)">
<path d="M16.6693 0.916992C29.4707 0.916992 32.6693 4.11565 32.6693 16.917C32.6693 29.7183 29.4707 32.917 16.6693 32.917C3.86797 32.917 0.669312 29.7183 0.669312 16.917C0.669312 4.11565 3.86797 0.916992 16.6693 0.916992ZM14.044 25.669C17.4093 25.673 20.1826 22.909 20.1893 19.5423C20.1893 16.181 17.424 13.4157 14.0627 13.4157C10.7013 13.4157 7.936 16.1823 7.936 19.5423C7.936 22.897 10.6893 25.6597 14.044 25.669H14.044ZM25.1693 25.417V8.41699H8.16931V11.413H22.1667V25.417H25.1693ZM14.044 16.4196C15.7687 16.4204 17.1666 17.8188 17.1666 19.5436C17.1666 21.269 15.768 22.6676 14.0426 22.6676C14.0422 22.6676 14.0417 22.6676 14.0412 22.6676H14.0413C12.3165 22.6669 10.9186 21.2685 10.9186 19.5436C10.9186 17.8183 12.3173 16.4196 14.0426 16.4196C14.0431 16.4196 14.0436 16.4196 14.044 16.4196H14.044Z" fill="black"/>
</g>
<defs>
<clipPath id="clip0_85_431">
<rect width="32" height="32" fill="white" transform="translate(0.669312 0.916992)"/>
</clipPath>
</defs>
</svg>
