<svg width="33" height="33" viewBox="0 0 33 33" fill="none" xmlns="http://www.w3.org/2000/svg">
<g clip-path="url(#clip0_85_440)">
<path d="M30.0467 29.1569L19.0293 1.52893H11.1613L12.56 5.02628L3.11731 29.1569C2.76797 30.3809 1.71866 30.5569 0.669312 30.7316V32.3049H9.76266V30.7316C7.31466 30.5569 5.91466 30.2062 6.964 27.5836C7.13866 27.4089 7.83865 25.4849 8.712 23.0369H19.9027L21.476 27.0583C21.6507 27.7583 21.8253 28.2823 21.8253 28.8063C21.8253 30.2049 20.6013 30.7303 18.328 30.7303V32.3036H32.6693V30.7303C31.4453 30.5569 30.396 30.2063 30.0467 29.1569H30.0467ZM9.76266 20.0649C11.5107 15.6929 13.4347 10.6223 14.1347 8.69827L18.6813 20.0649H9.76266Z" fill="black"/>
</g>
<defs>
<clipPath id="clip0_85_440">
<rect width="32" height="32" fill="white" transform="translate(0.669312 0.916992)"/>
</clipPath>
</defs>
</svg>
