<svg width="33" height="33" viewBox="0 0 33 33" fill="none" xmlns="http://www.w3.org/2000/svg">
<g clip-path="url(#clip0_85_449)">
<path d="M24.7733 22.7104C24.4947 22.3624 13.1613 7.8704 12.7667 7.38239C12.3947 6.89439 12.488 6.75574 12.5573 6.68505C12.6973 6.52239 12.9053 6.54505 13.7187 6.54505C14.2067 6.54505 19.0373 6.52239 19.548 6.52239C20.5934 6.52239 20.756 6.61574 20.872 6.6384C20.988 6.68505 21.2667 6.91705 21.476 7.14905C21.592 7.28905 31.7414 19.4344 31.8334 19.5504C31.9494 19.6904 32.112 19.9224 32.252 20.1304C32.368 20.3397 32.392 20.6184 32.2054 20.7344C32.0894 20.8037 26.4694 23.1264 26.3067 23.173C26.1441 23.2424 25.8427 23.3584 25.6094 23.3131C25.4934 23.3144 25.1454 23.1517 24.7734 22.7104H24.7733ZM30.5093 22.4317L30.928 22.501C30.928 22.501 32.2747 22.7571 32.4146 22.8024C32.5533 22.8264 32.6693 22.9424 32.6693 22.989C32.6693 23.1051 32.6 23.1517 32.484 23.2211C32.3906 23.2904 26.3066 27.0291 26.1906 27.0997C26.0746 27.1691 25.9346 27.2397 25.6106 27.2851C25.0066 27.4011 23.8693 27.0757 23.4973 27.0064C23.1493 26.9371 8.21593 23.6157 8.09993 23.5691C7.95993 23.5224 7.86793 23.5224 7.86793 23.3837C7.84527 23.1744 8.16927 23.1051 8.42527 23.0117C8.68127 22.9184 15.6946 20.3877 15.9493 20.2717C16.2053 20.1557 16.5066 20.1317 16.6693 20.1317C16.8319 20.1317 17.8066 20.2717 18.2479 20.3411C18.6892 20.4104 19.9426 20.5971 19.9426 20.5971L22.7986 24.2891C23.2866 24.8691 23.6119 25.1024 24.0292 25.1251C24.2386 25.1477 24.4706 25.0784 24.6332 25.0091C24.7506 24.9637 30.5092 22.4317 30.5092 22.4317H30.5093ZM14.2067 13.3744C14.2067 13.3744 16.668 16.533 16.692 16.5557C16.7147 16.6024 16.7387 16.6491 16.7854 16.6717V16.7184C16.692 16.7877 12.3027 20.8517 12.28 20.8757L7.65868 22.5704C7.65868 22.5704 7.51868 22.6171 7.44934 22.6637C7.37999 22.7104 7.28668 22.8037 7.30934 23.0117C7.30934 23.0811 7.33199 24.1491 7.35599 24.4051C7.33334 24.4277 7.35599 24.4051 7.33334 24.4277C7.33334 24.4277 1.64399 26.2397 1.59734 26.2397C1.31868 26.3331 0.783991 26.5184 0.714679 26.4717C0.598679 26.3784 0.737335 26.2397 0.808023 26.1464C0.877366 26.0531 12.536 14.5811 12.9774 14.1171C13.6027 13.4437 14.2067 13.3744 14.2067 13.3744H14.2067Z" fill="black"/>
</g>
<defs>
<clipPath id="clip0_85_449">
<rect width="32" height="32" fill="white" transform="translate(0.669312 0.916992)"/>
</clipPath>
</defs>
</svg>
