<svg width="33" height="33" viewBox="0 0 33 33" fill="none" xmlns="http://www.w3.org/2000/svg">
<g clip-path="url(#clip0_85_458)">
<path d="M10.5827 17.2503C10.476 17.2837 10.3827 17.3463 10.3133 17.4303C10.2493 17.5263 10.216 17.641 10.22 17.757C10.22 17.957 10.2706 18.093 10.38 18.1676C10.4826 18.2423 10.6386 18.277 10.8493 18.277C10.9653 18.277 11.0813 18.2503 11.2013 18.197C11.3213 18.1463 11.4333 18.0703 11.528 17.977V17.097C11.304 17.117 11.124 17.137 10.988 17.157C10.848 17.1703 10.712 17.2023 10.5826 17.2503H10.5827ZM16.6693 0.916992L0.669312 16.917L16.6693 32.917L32.6693 16.917L16.6693 0.916992ZM16.6693 26.7263C11.2533 26.7237 6.86266 22.3343 6.85997 16.917C6.86262 11.501 11.2533 7.10899 16.6693 7.10634C22.0867 7.10899 26.476 11.4997 26.4787 16.917C26.476 22.3343 22.0867 26.7236 16.6693 26.7263ZM16.6693 8.08634V8.08899C11.7973 8.08899 7.84266 12.0436 7.84266 16.9156C7.84266 21.7876 11.7973 25.7423 16.6693 25.7423C21.5413 25.7423 25.496 21.7876 25.496 16.9156C25.496 12.041 21.544 8.08899 16.6693 8.08631V8.08634ZM12.8533 19.081H11.5267V18.633L11.284 18.8383C11.0947 18.9823 10.8787 19.089 10.648 19.149C10.5387 19.1756 10.3787 19.1956 10.1787 19.1956C9.82931 19.205 9.492 19.0663 9.248 18.8156C8.99866 18.5623 8.87866 18.2476 8.87866 17.861C8.87866 17.5436 8.94 17.2916 9.06531 17.0956C9.19866 16.8956 9.38531 16.7356 9.60531 16.6316C9.87866 16.5116 10.1693 16.429 10.4667 16.3916C10.8 16.3476 11.1547 16.3116 11.5373 16.2876V16.265C11.5373 16.0303 11.4493 15.869 11.276 15.781C11.1026 15.6876 10.8466 15.645 10.5026 15.645C10.3466 15.645 10.164 15.6716 9.95597 15.729C9.74531 15.7876 9.54531 15.8623 9.34531 15.9476H9.22931V14.921C9.35866 14.881 9.57065 14.8383 9.86931 14.7876C10.1587 14.7343 10.4533 14.7076 10.7533 14.7076C11.4867 14.7076 12.02 14.8303 12.3533 15.0756C12.6867 15.3196 12.8533 15.6916 12.8533 16.1916V19.081ZM17.1467 18.8583C17.0533 18.8957 16.968 18.933 16.88 18.973C16.7813 19.013 16.68 19.0503 16.5733 19.0796C16.448 19.1116 16.3253 19.1383 16.2133 19.1596C16.1013 19.1783 15.952 19.189 15.7653 19.189C15.4147 19.189 15.0907 19.145 14.8013 19.0556C14.5213 18.973 14.26 18.8356 14.0413 18.6463C13.824 18.457 13.652 18.2196 13.544 17.953C13.424 17.673 13.364 17.3436 13.364 16.969C13.3533 16.609 13.42 16.2556 13.5587 15.929C13.6787 15.657 13.8573 15.417 14.0813 15.2223C14.3013 15.0436 14.5547 14.9116 14.828 14.8356C15.1213 14.7476 15.424 14.7076 15.728 14.7076C16.2213 14.7076 16.704 14.8236 17.1413 15.0476V16.1863H16.972C16.908 16.129 16.844 16.073 16.776 16.021C16.696 15.957 16.6133 15.901 16.5253 15.853C16.3027 15.7263 16.0493 15.661 15.792 15.6663C15.4533 15.6663 15.192 15.781 15.0053 16.017C14.8213 16.253 14.7253 16.569 14.7253 16.969C14.7253 17.3956 14.8253 17.7156 15.0253 17.9223C15.2253 18.1316 15.488 18.2356 15.8147 18.2356C15.9613 18.2356 16.1107 18.2183 16.2547 18.1796C16.4587 18.1223 16.648 18.0196 16.808 17.8796C16.872 17.8263 16.9253 17.7703 16.972 17.733H17.1453L17.1467 18.8583ZM22.924 19.089V16.9596C22.924 16.7503 22.924 16.573 22.9146 16.4303C22.912 16.3103 22.888 16.1903 22.8453 16.0796C22.8146 15.9916 22.7519 15.9196 22.6719 15.8796C22.4679 15.7943 22.2386 15.7956 22.0346 15.8823C21.9199 15.9356 21.8106 15.9983 21.7092 16.069V19.0863H20.3852V16.9596C20.3852 16.7516 20.3812 16.5783 20.3719 16.4316C20.3679 16.3116 20.3452 16.1916 20.3052 16.0796C20.2692 15.9916 20.2039 15.9196 20.1239 15.8796C20.0439 15.8356 19.9306 15.8156 19.7906 15.8156C19.6799 15.8156 19.5706 15.8423 19.4706 15.8903C19.3666 15.9436 19.2679 16.005 19.1666 16.0716V19.0876H17.8399V14.837H19.1639V15.3116C19.3559 15.145 19.5586 15.001 19.7772 14.881C19.9746 14.7743 20.1959 14.721 20.4226 14.721C20.6652 14.7156 20.9026 14.781 21.1079 14.9076C21.3119 15.041 21.4679 15.233 21.5613 15.4596C21.8146 15.2236 22.0546 15.041 22.2813 14.913C22.5079 14.785 22.7346 14.7196 22.9679 14.7196C23.1493 14.717 23.3279 14.7503 23.4959 14.8196C23.6493 14.8783 23.7893 14.9743 23.8959 15.0996C24.0159 15.241 24.1093 15.4063 24.1626 15.585C24.2226 15.7743 24.2506 16.0223 24.2506 16.3223V19.0903L22.924 19.089Z" fill="black"/>
</g>
<defs>
<clipPath id="clip0_85_458">
<rect width="32" height="32" fill="white" transform="translate(0.669312 0.916992)"/>
</clipPath>
</defs>
</svg>
