<svg width="33" height="33" viewBox="0 0 33 33" fill="none" xmlns="http://www.w3.org/2000/svg">
<g clip-path="url(#clip0_85_476)">
<path d="M16.6693 0.916992C12.028 0.916992 6.57068 2.02099 1.91068 4.42099L1.18402 4.79299V5.61434C1.18402 10.5623 1.27868 23.765 15.9854 32.5063L16.6694 32.917L17.3534 32.5063C32.06 23.765 32.1534 10.5623 32.1534 5.61299V4.80234L31.436 4.42634C26.832 2.01699 21.3107 0.916992 16.6694 0.916992H16.6693ZM16.6693 3.59965C20.64 3.59965 25.448 4.61699 29.4373 6.52899C29.4267 11.713 28.88 21.9196 16.6693 29.6356C4.45868 21.9196 3.91068 11.713 3.90133 6.52899C7.94933 4.61034 12.6987 3.59965 16.6693 3.59965ZM23.3827 11.0196C23.036 11.0303 22.7373 11.2503 22.5693 11.4183L15.396 18.8583L12.7133 15.641C11.44 14.1663 9.69733 15.3063 9.29468 15.5743L15.5307 22.8143L24.044 11.2836C23.8761 11.1203 23.6466 11.0196 23.3935 11.0196C23.3897 11.0196 23.3859 11.0196 23.3821 11.0196H23.3827Z" fill="black"/>
</g>
<defs>
<clipPath id="clip0_85_476">
<rect width="32" height="32" fill="white" transform="translate(0.669312 0.916992)"/>
</clipPath>
</defs>
</svg>
