<svg width="33" height="33" viewBox="0 0 33 33" fill="none" xmlns="http://www.w3.org/2000/svg">
<path d="M14.1827 14.2676V10.649C14.1827 10.241 14.5133 9.91034 14.9213 9.91034H17.4693C17.8773 9.91034 18.208 10.241 18.208 10.649V17.273C18.208 17.3743 18.1573 17.4516 18.1067 17.5276L17.4693 18.165C17.316 18.3183 17.316 18.5476 17.4693 18.6743L18.1067 19.3117C18.1827 19.3877 18.208 19.465 18.208 19.5663V23.1837C18.208 23.5917 17.8773 23.9223 17.4693 23.9223H14.9213C14.5133 23.9223 14.1827 23.5917 14.1827 23.1837V16.5597C14.1827 16.4583 14.2333 16.381 14.284 16.305L14.9214 15.6677C15.0747 15.5143 15.0747 15.285 14.9214 15.1583L14.284 14.521C14.208 14.445 14.1827 14.369 14.1827 14.2676V14.2676ZM25.672 16.917C25.672 11.669 21.4173 7.41434 16.1693 7.41434C10.9213 7.41434 6.66669 11.669 6.66669 16.917C6.66669 22.165 10.9213 26.4196 16.1693 26.4196C21.4173 26.4196 25.672 22.165 25.672 16.917ZM28.6787 16.917C28.6787 23.821 23.0733 29.401 16.1947 29.401C9.29069 29.401 3.71069 23.7956 3.71069 16.917C3.71069 10.013 9.31603 4.43299 16.1947 4.43299C23.0733 4.43299 28.6787 10.013 28.6787 16.917ZM1.188 16.917C1.188 25.197 7.888 31.8983 16.1693 31.8983C24.4507 31.8983 31.1507 25.197 31.1507 16.917C31.1507 8.63699 24.4493 1.93565 16.1693 1.93565C7.88934 1.93565 1.188 8.63699 1.188 16.917V16.917ZM0.169342 16.917C0.169342 8.07565 7.328 0.916992 16.1693 0.916992C25.0107 0.916992 32.1693 8.07565 32.1693 16.917C32.1693 25.7583 25.0107 32.917 16.1693 32.917C7.328 32.917 0.169342 25.7583 0.169342 16.917Z" fill="black"/>
</svg>
