<svg width="33" height="9" viewBox="0 0 33 9" fill="none" xmlns="http://www.w3.org/2000/svg">
<path d="M10.088 0.930374C7.88742 0.933405 6.10436 2.7165 6.10133 4.91675V4.91703C6.10361 7.11787 7.88714 8.90144 10.0878 8.90369H10.088C12.2885 8.90066 14.0716 7.11756 14.0746 4.91731V4.91703C14.0724 2.71619 12.2888 0.932624 10.0882 0.930374H10.088ZM10.088 8.05437C8.35864 8.05437 6.94933 6.64637 6.94933 4.91703C6.94933 3.18769 8.35867 1.77969 10.088 1.77969C11.8173 1.77969 13.2253 3.18769 13.2253 4.91703C13.2253 6.64637 11.8173 8.05437 10.088 8.05437ZM18.7173 0.930374C16.5168 0.933405 14.7337 2.7165 14.7307 4.91675V4.91703C14.733 7.11787 16.5165 8.90144 18.7171 8.90369H18.7173C20.9179 8.90066 22.701 7.11756 22.704 4.91731V4.91703C22.701 2.71647 20.9179 0.933405 18.7176 0.930374H18.7173ZM18.7173 8.05437C16.9867 8.05437 15.58 6.64637 15.58 4.91703C15.58 3.18769 16.9866 1.77969 18.7173 1.77969C20.4467 1.77969 21.8547 3.18769 21.8547 4.91703C21.8547 6.64637 20.4467 8.05437 18.7173 8.05437ZM3.23467 3.32103C3.11314 3.30234 2.97295 3.29165 2.83027 3.29165C2.17745 3.29165 1.57683 3.51506 1.10067 3.88956L1.1067 3.885V1.77166H4.68936C4.81336 1.77166 4.9027 1.749 4.9027 1.38231C4.9027 1.02365 4.7587 1.00897 4.6627 1.00897H0.697361C0.465361 1.00897 0.344017 1.19562 0.344017 1.40097V4.87031C0.344017 5.05166 0.460017 5.11431 0.673361 5.15565C0.861361 5.193 0.970705 5.17166 1.05336 5.07966L1.06136 5.06631C1.4387 4.52231 2.26136 3.99431 3.0427 4.09031C3.9747 4.20497 4.72536 4.94897 4.82936 5.85966C4.8378 5.92887 4.84261 6.00903 4.84261 6.09031C4.84261 7.20322 3.94083 8.1055 2.82811 8.10631H2.82802C1.98136 8.10631 1.24136 7.56231 0.933361 6.77166C0.886705 6.65431 0.810705 6.569 0.476017 6.689C0.170674 6.79966 0.152017 6.93034 0.193361 7.04634C0.597955 8.13141 1.62386 8.89087 2.82761 8.89434H2.82805C4.3693 8.88562 5.61536 7.63419 5.61536 6.09172C5.61536 4.69281 4.59045 3.53325 3.25055 3.32306L3.23474 3.32103H3.23467ZM25.4293 0.96903C24.356 1.05169 23.5173 1.99437 23.5173 3.11569V6.66369C23.5173 6.86903 23.6733 6.91169 23.908 6.91169C24.1426 6.91169 24.2986 6.87034 24.2986 6.66369V3.10634C24.2986 2.40769 24.808 1.80769 25.456 1.741C25.4977 1.73622 25.5461 1.7335 25.5951 1.7335C25.9312 1.7335 26.2374 1.86144 26.4677 2.07125L26.4667 2.07031C26.7309 2.31119 26.896 2.65681 26.896 3.041C26.896 3.04147 26.896 3.0419 26.896 3.04237V3.04231C26.896 3.14897 26.844 3.49565 26.6067 3.81697C26.4267 4.05962 26.0853 4.34897 25.4813 4.34897H25.4693C25.316 4.34897 25.1827 4.35562 25.1573 4.72231C25.14 4.97031 25.1413 5.08097 25.3547 5.10897C25.736 5.16231 26.1227 5.08762 26.508 4.88762C27.164 4.54628 27.604 3.89962 27.656 3.19828C27.6598 3.15097 27.662 3.09587 27.662 3.04028C27.662 2.46584 27.4295 1.94569 27.0533 1.5689L27.0534 1.56894C26.6773 1.1945 26.1586 0.96303 25.5859 0.96303C25.5308 0.96303 25.4762 0.965186 25.4222 0.969374L25.4294 0.968937L25.4293 0.96903ZM30.6547 3.04769L32.1013 1.60103C32.1547 1.54903 32.2773 1.42503 32.028 1.16903C31.9213 1.05837 31.824 1.00237 31.7386 1.00237H31.7373C31.6726 1.00391 31.615 1.03347 31.5762 1.07937L31.576 1.07969L30.1253 2.53034L28.6773 1.073C28.56 0.955656 28.424 0.983655 28.248 1.15965C28.068 1.341 28.0386 1.47965 28.156 1.597L29.604 3.053L28.176 4.481C28.1413 4.51434 28.0893 4.565 28.0893 4.64766C28.088 4.73166 28.1453 4.833 28.2573 4.945C28.3507 5.03965 28.4413 5.08766 28.524 5.08766C28.616 5.08766 28.676 5.02766 28.7093 4.99431L30.1333 3.57166L31.588 5.02766C31.6267 5.06481 31.6794 5.08766 31.7374 5.08766C31.7383 5.08766 31.7392 5.08766 31.7401 5.08762H31.7426C31.8346 5.08762 31.932 5.03428 32.032 4.93028C32.1946 4.75828 32.2226 4.61562 32.1133 4.50494L30.6547 3.04769Z" fill="black"/>
</svg>
