<svg width="33" height="33" viewBox="0 0 33 33" fill="none" xmlns="http://www.w3.org/2000/svg">
<g clip-path="url(#clip0_85_413)">
<path d="M32.1694 17.5303C32.1694 24.5996 26.4386 30.3303 19.3694 30.3303C12.3001 30.3303 6.56936 24.5996 6.56936 17.5303H7.99601C7.99601 23.8116 13.088 28.9037 19.3694 28.9037C25.6507 28.9037 30.7427 23.8117 30.7427 17.5303C30.7427 11.249 25.6507 6.15697 19.3694 6.15697V4.73032C26.4386 4.73032 32.1694 10.4611 32.1694 17.5303ZM19.3694 13.2636C17.013 13.2636 15.1027 15.1739 15.1027 17.5303C15.1027 19.8867 17.013 21.7969 19.3694 21.7969C21.7258 21.7969 23.636 19.8867 23.636 17.5303C23.636 15.1739 21.7258 13.2636 19.3694 13.2636ZM16.7027 13.2636L15.9027 4.37029L12.6227 6.93029L10.676 5.01029C9.59089 4.06782 8.16404 3.49341 6.60308 3.49341C5.32995 3.49341 4.14604 3.87551 3.15983 4.53129L3.18273 4.51698L0.489388 6.25032C0.29792 6.38166 0.17392 6.59932 0.17392 6.84591C0.17392 6.99126 0.216982 7.12657 0.291076 7.23973L0.289388 7.23698C0.420732 7.42844 0.638388 7.55245 0.884982 7.55245C1.03033 7.55245 1.16564 7.50938 1.27879 7.43529L1.27604 7.43698L3.9427 5.69032C4.69211 5.19304 5.61248 4.89688 6.60201 4.89688C7.76642 4.89688 8.83504 5.30695 9.67136 5.99051L9.66267 5.98363L11.4893 7.82363L8.43598 10.2503L16.7027 13.2636Z" fill="black"/>
</g>
<defs>
<clipPath id="clip0_85_413">
<rect width="32" height="32" fill="white" transform="translate(0.169342 0.916992)"/>
</clipPath>
</defs>
</svg>
