<svg width="33" height="33" viewBox="0 0 33 33" fill="none" xmlns="http://www.w3.org/2000/svg">
<g clip-path="url(#clip0_85_422)">
<path d="M26.2173 13.117C24.3867 13.117 23.3733 14.469 23.1587 15.9384H29.3027C29.136 14.5384 28.1467 13.1184 26.2173 13.1184V13.117ZM23.204 17.941C23.5173 19.4824 24.7947 20.5677 26.58 20.5677C27.5467 20.5677 28.94 20.2077 29.7587 19.349L31.3253 21.149C29.9067 22.629 27.788 23.0504 26.3387 23.0504C22.8187 23.0504 20.076 20.509 20.076 16.909C20.076 13.529 22.6013 10.749 26.1693 10.749C29.616 10.749 32.1693 13.389 32.1693 16.8877V17.909H23.2053L23.204 17.941ZM14.5547 23.0477V15.461C14.5547 14.1597 13.9747 13.413 12.7707 13.413C11.6853 13.413 10.964 14.193 10.4813 14.7557V23.0757H7.348V15.4757C7.348 14.1743 6.79466 13.433 5.59066 13.433C4.50666 13.433 3.75731 14.2144 3.30131 14.7744V23.0944H0.169312V10.9277H3.30266V12.461C3.836 11.8424 5.03866 10.781 6.916 10.781C8.57866 10.781 9.71066 11.481 10.2187 12.901C10.9173 11.885 12.2187 10.781 14.0987 10.781C16.3653 10.781 17.6853 12.1277 17.6853 14.7304V23.0504H14.548L14.5547 23.0477Z" fill="black"/>
</g>
<defs>
<clipPath id="clip0_85_422">
<rect width="32" height="32" fill="white" transform="translate(0.169342 0.916992)"/>
</clipPath>
</defs>
</svg>
