<svg width="33" height="33" viewBox="0 0 33 33" fill="none" xmlns="http://www.w3.org/2000/svg">
<g clip-path="url(#clip0_85_440)">
<path d="M29.5467 29.1569L18.5293 1.52893H10.6613L12.06 5.02628L2.61731 29.1569C2.26797 30.3809 1.21866 30.5569 0.169312 30.7316V32.3049H9.26266V30.7316C6.81466 30.5569 5.41466 30.2062 6.464 27.5836C6.63866 27.4089 7.33865 25.4849 8.212 23.0369H19.4027L20.976 27.0583C21.1507 27.7583 21.3253 28.2823 21.3253 28.8063C21.3253 30.2049 20.1013 30.7303 17.828 30.7303V32.3036H32.1693V30.7303C30.9453 30.5569 29.896 30.2063 29.5467 29.1569H29.5467ZM9.26266 20.0649C11.0107 15.6929 12.9347 10.6223 13.6347 8.69827L18.1813 20.0649H9.26266Z" fill="black"/>
</g>
<defs>
<clipPath id="clip0_85_440">
<rect width="32" height="32" fill="white" transform="translate(0.169312 0.916992)"/>
</clipPath>
</defs>
</svg>
