<svg width="33" height="28" viewBox="0 0 33 28" fill="none" xmlns="http://www.w3.org/2000/svg">
<path d="M32.1694 14.5303C32.1694 21.5996 26.4386 27.3303 19.3694 27.3303C12.3001 27.3303 6.56936 21.5996 6.56936 14.5303H7.99601C7.99601 20.8116 13.088 25.9037 19.3694 25.9037C25.6507 25.9037 30.7427 20.8117 30.7427 14.5303C30.7427 8.24901 25.6507 3.15697 19.3694 3.15697V1.73032C26.4386 1.73032 32.1694 7.46107 32.1694 14.5303ZM19.3694 10.2636C17.013 10.2636 15.1027 12.1739 15.1027 14.5303C15.1027 16.8867 17.013 18.7969 19.3694 18.7969C21.7258 18.7969 23.636 16.8867 23.636 14.5303C23.636 12.1739 21.7258 10.2636 19.3694 10.2636ZM16.7027 10.2636L15.9027 1.37029L12.6227 3.93029L10.676 2.01029C9.59089 1.06782 8.16404 0.493412 6.60308 0.493412C5.32995 0.493412 4.14604 0.875507 3.15983 1.53129L3.18273 1.51698L0.489388 3.25032C0.29792 3.38166 0.17392 3.59932 0.17392 3.84591C0.17392 3.99126 0.216982 4.12657 0.291076 4.23973L0.289388 4.23698C0.420732 4.42844 0.638388 4.55245 0.884982 4.55245C1.03033 4.55245 1.16564 4.50938 1.27879 4.43529L1.27604 4.43698L3.9427 2.69032C4.69211 2.19304 5.61248 1.89688 6.60201 1.89688C7.76642 1.89688 8.83504 2.30695 9.67136 2.99051L9.66267 2.98363L11.4893 4.82363L8.43598 7.25029L16.7027 10.2636Z" fill="black"/>
</svg>
