<svg xmlns="http://www.w3.org/2000/svg" xmlns:xlink="http://www.w3.org/1999/xlink" width="0" height="0" style="display:none;"><symbol viewBox="0 0 33 33" id="abstract">
<g clip-path="url(#clip0_85_431)">
<path d="M16.1693 0.916992C28.9707 0.916992 32.1693 4.11565 32.1693 16.917C32.1693 29.7183 28.9707 32.917 16.1693 32.917C3.36797 32.917 0.169312 29.7183 0.169312 16.917C0.169312 4.11565 3.36797 0.916992 16.1693 0.916992ZM13.544 25.669C16.9093 25.673 19.6826 22.909 19.6893 19.5423C19.6893 16.181 16.924 13.4157 13.5627 13.4157C10.2013 13.4157 7.436 16.1823 7.436 19.5423C7.436 22.897 10.1893 25.6597 13.544 25.669H13.544ZM24.6693 25.417V8.41699H7.66931V11.413H21.6667V25.417H24.6693ZM13.544 16.4196C15.2687 16.4204 16.6666 17.8188 16.6666 19.5436C16.6666 21.269 15.268 22.6676 13.5426 22.6676C13.5422 22.6676 13.5417 22.6676 13.5412 22.6676H13.5413C11.8165 22.6669 10.4186 21.2685 10.4186 19.5436C10.4186 17.8183 11.8173 16.4196 13.5426 16.4196C13.5431 16.4196 13.5436 16.4196 13.544 16.4196H13.544Z" fill="black"/>
</g>
<defs>
<clipPath id="clip0_85_431">
<rect width="32" height="32" fill="white" transform="translate(0.169312 0.916992)"/>
</clipPath>
</defs>
</symbol></svg>