<?xml version="1.0" encoding="UTF-8"?>
<!--Generator: Apple Native CoreSVG 175-->
<!DOCTYPE svg
PUBLIC "-//W3C//DTD SVG 1.1//EN"
       "http://www.w3.org/Graphics/SVG/1.1/DTD/svg11.dtd">
<svg version="1.1" xmlns="http://www.w3.org/2000/svg" xmlns:xlink="http://www.w3.org/1999/xlink" width="3300" height="2200">
 <!--glyph: "", point size: 100.0, font version: "17.3d3e1", template writer version: "65.1"-->
 <g id="Notes">
  <rect height="2200" id="artboard" style="fill:white;opacity:1" width="3300" x="0" y="0"/>
  <line style="fill:none;stroke:black;opacity:1;stroke-width:0.5;" x1="263" x2="3036" y1="292" y2="292"/>
  <text style="stroke:none;fill:black;font-family:sans-serif;font-size:13;font-weight:bold;" transform="matrix(1 0 0 1 263 322)">Weight/Scale Variations</text>
  <text style="stroke:none;fill:black;font-family:sans-serif;font-size:13;text-anchor:middle;" transform="matrix(1 0 0 1 559.711 322)">Ultralight</text>
  <text style="stroke:none;fill:black;font-family:sans-serif;font-size:13;text-anchor:middle;" transform="matrix(1 0 0 1 856.422 322)">Thin</text>
  <text style="stroke:none;fill:black;font-family:sans-serif;font-size:13;text-anchor:middle;" transform="matrix(1 0 0 1 1153.13 322)">Light</text>
  <text style="stroke:none;fill:black;font-family:sans-serif;font-size:13;text-anchor:middle;" transform="matrix(1 0 0 1 1449.84 322)">Regular</text>
  <text style="stroke:none;fill:black;font-family:sans-serif;font-size:13;text-anchor:middle;" transform="matrix(1 0 0 1 1746.56 322)">Medium</text>
  <text style="stroke:none;fill:black;font-family:sans-serif;font-size:13;text-anchor:middle;" transform="matrix(1 0 0 1 2043.27 322)">Semibold</text>
  <text style="stroke:none;fill:black;font-family:sans-serif;font-size:13;text-anchor:middle;" transform="matrix(1 0 0 1 2339.98 322)">Bold</text>
  <text style="stroke:none;fill:black;font-family:sans-serif;font-size:13;text-anchor:middle;" transform="matrix(1 0 0 1 2636.69 322)">Heavy</text>
  <text style="stroke:none;fill:black;font-family:sans-serif;font-size:13;text-anchor:middle;" transform="matrix(1 0 0 1 2933.4 322)">Black</text>
  <line style="fill:none;stroke:black;opacity:1;stroke-width:0.5;" x1="263" x2="3036" y1="1903" y2="1903"/>
  <g transform="matrix(1 0 0 1 263 1933)">
   <path d="M9.24805 0.830078Q10.8691 0.830078 12.2949 0.214844Q13.7207-0.400391 14.8096-1.49414Q15.8984-2.58789 16.5186-4.01367Q17.1387-5.43945 17.1387-7.05078Q17.1387-8.66211 16.5186-10.0879Q15.8984-11.5137 14.8047-12.6074Q13.7109-13.7012 12.2852-14.3164Q10.8594-14.9316 9.23828-14.9316Q7.62695-14.9316 6.20117-14.3164Q4.77539-13.7012 3.69141-12.6074Q2.60742-11.5137 1.9873-10.0879Q1.36719-8.66211 1.36719-7.05078Q1.36719-5.43945 1.9873-4.01367Q2.60742-2.58789 3.69629-1.49414Q4.78516-0.400391 6.21094 0.214844Q7.63672 0.830078 9.24805 0.830078ZM9.24805-0.654297Q7.91992-0.654297 6.7627-1.14746Q5.60547-1.64062 4.73145-2.51953Q3.85742-3.39844 3.36426-4.56055Q2.87109-5.72266 2.87109-7.05078Q2.87109-8.37891 3.35938-9.54102Q3.84766-10.7031 4.72168-11.582Q5.5957-12.4609 6.75293-12.9541Q7.91016-13.4473 9.23828-13.4473Q10.5762-13.4473 11.7334-12.9541Q12.8906-12.4609 13.7695-11.582Q14.6484-10.7031 15.1465-9.54102Q15.6445-8.37891 15.6445-7.05078Q15.6445-5.72266 15.1514-4.56055Q14.6582-3.39844 13.7842-2.51953Q12.9102-1.64062 11.748-1.14746Q10.5859-0.654297 9.24805-0.654297ZM5.6543-7.05078Q5.6543-6.72852 5.85938-6.52832Q6.06445-6.32812 6.40625-6.32812L8.51562-6.32812L8.51562-4.20898Q8.51562-3.88672 8.71094-3.67676Q8.90625-3.4668 9.23828-3.4668Q9.56055-3.4668 9.77051-3.67676Q9.98047-3.88672 9.98047-4.20898L9.98047-6.32812L12.0898-6.32812Q12.4219-6.32812 12.627-6.52832Q12.832-6.72852 12.832-7.05078Q12.832-7.38281 12.627-7.58789Q12.4219-7.79297 12.0898-7.79297L9.98047-7.79297L9.98047-9.90234Q9.98047-10.2344 9.77051-10.4443Q9.56055-10.6543 9.23828-10.6543Q8.90625-10.6543 8.71094-10.4443Q8.51562-10.2344 8.51562-9.90234L8.51562-7.79297L6.40625-7.79297Q6.06445-7.79297 5.85938-7.58789Q5.6543-7.38281 5.6543-7.05078Z"/>
  </g>
  <g transform="matrix(1 0 0 1 281.867 1933)">
   <path d="M11.709 2.91016Q13.75 2.91016 15.5518 2.12891Q17.3535 1.34766 18.7305-0.0292969Q20.1074-1.40625 20.8887-3.20801Q21.6699-5.00977 21.6699-7.05078Q21.6699-9.0918 20.8887-10.8936Q20.1074-12.6953 18.7305-14.0723Q17.3535-15.4492 15.5469-16.2305Q13.7402-17.0117 11.6992-17.0117Q9.6582-17.0117 7.85645-16.2305Q6.05469-15.4492 4.68262-14.0723Q3.31055-12.6953 2.5293-10.8936Q1.74805-9.0918 1.74805-7.05078Q1.74805-5.00977 2.5293-3.20801Q3.31055-1.40625 4.6875-0.0292969Q6.06445 1.34766 7.86621 2.12891Q9.66797 2.91016 11.709 2.91016ZM11.709 1.25Q9.98047 1.25 8.47656 0.605469Q6.97266-0.0390625 5.83496-1.17676Q4.69727-2.31445 4.05762-3.81836Q3.41797-5.32227 3.41797-7.05078Q3.41797-8.7793 4.05762-10.2832Q4.69727-11.7871 5.83008-12.9297Q6.96289-14.0723 8.4668-14.7119Q9.9707-15.3516 11.6992-15.3516Q13.4277-15.3516 14.9316-14.7119Q16.4355-14.0723 17.5781-12.9297Q18.7207-11.7871 19.3652-10.2832Q20.0098-8.7793 20.0098-7.05078Q20.0098-5.32227 19.3701-3.81836Q18.7305-2.31445 17.5928-1.17676Q16.4551-0.0390625 14.9463 0.605469Q13.4375 1.25 11.709 1.25ZM7.17773-7.05078Q7.17773-6.69922 7.41211-6.47461Q7.64648-6.25 8.01758-6.25L10.8887-6.25L10.8887-3.36914Q10.8887-2.99805 11.1133-2.76855Q11.3379-2.53906 11.6895-2.53906Q12.0605-2.53906 12.29-2.76855Q12.5195-2.99805 12.5195-3.36914L12.5195-6.25L15.4004-6.25Q15.7715-6.25 16.001-6.47461Q16.2305-6.69922 16.2305-7.05078Q16.2305-7.42188 16.001-7.65137Q15.7715-7.88086 15.4004-7.88086L12.5195-7.88086L12.5195-10.752Q12.5195-11.1328 12.29-11.3623Q12.0605-11.5918 11.6895-11.5918Q11.3379-11.5918 11.1133-11.3574Q10.8887-11.123 10.8887-10.752L10.8887-7.88086L8.01758-7.88086Q7.63672-7.88086 7.40723-7.65137Q7.17773-7.42188 7.17773-7.05078Z"/>
  </g>
  <g transform="matrix(1 0 0 1 305.646 1933)">
   <path d="M14.9707 5.66406Q17.0605 5.66406 18.96 5.01465Q20.8594 4.36523 22.4512 3.19336Q24.043 2.02148 25.2197 0.429688Q26.3965-1.16211 27.0459-3.06641Q27.6953-4.9707 27.6953-7.05078Q27.6953-9.14062 27.0459-11.04Q26.3965-12.9395 25.2197-14.5312Q24.043-16.123 22.4512-17.2998Q20.8594-18.4766 18.9551-19.126Q17.0508-19.7754 14.9609-19.7754Q12.8711-19.7754 10.9717-19.126Q9.07227-18.4766 7.48535-17.2998Q5.89844-16.123 4.72168-14.5312Q3.54492-12.9395 2.90039-11.04Q2.25586-9.14062 2.25586-7.05078Q2.25586-4.9707 2.90527-3.06641Q3.55469-1.16211 4.72656 0.429688Q5.89844 2.02148 7.49023 3.19336Q9.08203 4.36523 10.9814 5.01465Q12.8809 5.66406 14.9707 5.66406ZM14.9707 3.84766Q13.1641 3.84766 11.5283 3.2959Q9.89258 2.74414 8.53516 1.74805Q7.17773 0.751953 6.17676-0.610352Q5.17578-1.97266 4.62891-3.6084Q4.08203-5.24414 4.08203-7.05078Q4.08203-8.86719 4.62891-10.5029Q5.17578-12.1387 6.17188-13.501Q7.16797-14.8633 8.52539-15.8594Q9.88281-16.8555 11.5186-17.4023Q13.1543-17.9492 14.9609-17.9492Q16.7773-17.9492 18.4131-17.4023Q20.0488-16.8555 21.4111-15.8594Q22.7734-14.8633 23.7695-13.501Q24.7656-12.1387 25.3174-10.5029Q25.8691-8.86719 25.8691-7.05078Q25.8789-5.24414 25.332-3.6084Q24.7852-1.97266 23.7842-0.610352Q22.7832 0.751953 21.4209 1.74805Q20.0586 2.74414 18.4229 3.2959Q16.7871 3.84766 14.9707 3.84766ZM9.19922-7.05078Q9.19922-6.66992 9.45801-6.4209Q9.7168-6.17188 10.1172-6.17188L14.0625-6.17188L14.0625-2.2168Q14.0625-1.81641 14.3115-1.55762Q14.5605-1.29883 14.9512-1.29883Q15.3516-1.29883 15.6104-1.55273Q15.8691-1.80664 15.8691-2.2168L15.8691-6.17188L19.8242-6.17188Q20.2246-6.17188 20.4785-6.4209Q20.7324-6.66992 20.7324-7.05078Q20.7324-7.46094 20.4785-7.71484Q20.2246-7.96875 19.8242-7.96875L15.8691-7.96875L15.8691-11.9141Q15.8691-12.3242 15.6104-12.583Q15.3516-12.8418 14.9512-12.8418Q14.5605-12.8418 14.3115-12.583Q14.0625-12.3242 14.0625-11.9141L14.0625-7.96875L10.1172-7.96875Q9.70703-7.96875 9.45312-7.71484Q9.19922-7.46094 9.19922-7.05078Z"/>
  </g>
  <text style="stroke:none;fill:black;font-family:sans-serif;font-size:13;font-weight:bold;" transform="matrix(1 0 0 1 263 1953)">Design Variations</text>
  <text style="stroke:none;fill:black;font-family:sans-serif;font-size:13;" transform="matrix(1 0 0 1 263 1971)">Symbols are supported in up to nine weights and three scales.</text>
  <text style="stroke:none;fill:black;font-family:sans-serif;font-size:13;" transform="matrix(1 0 0 1 263 1989)">For optimal layout with text and other symbols, vertically align</text>
  <text style="stroke:none;fill:black;font-family:sans-serif;font-size:13;" transform="matrix(1 0 0 1 263 2007)">symbols with the adjacent text.</text>
  <line style="fill:none;stroke:#00AEEF;stroke-width:0.5;opacity:1.0;" x1="776" x2="776" y1="1919" y2="1933"/>
  <g transform="matrix(1 0 0 1 776 1933)">
   <path d="M3.31055 0.15625Q3.70117 0.15625 3.91602-0.00976562Q4.13086-0.175781 4.26758-0.585938L5.52734-4.0332L11.2891-4.0332L12.5488-0.585938Q12.6855-0.175781 12.9004-0.00976562Q13.1152 0.15625 13.4961 0.15625Q13.8867 0.15625 14.1162-0.0585938Q14.3457-0.273438 14.3457-0.644531Q14.3457-0.869141 14.2383-1.17188L9.6582-13.3691Q9.48242-13.8184 9.17969-14.043Q8.87695-14.2676 8.4082-14.2676Q7.5-14.2676 7.17773-13.3789L2.59766-1.16211Q2.49023-0.859375 2.49023-0.634766Q2.49023-0.263672 2.70996-0.0537109Q2.92969 0.15625 3.31055 0.15625ZM6.00586-5.51758L8.37891-12.0898L8.42773-12.0898L10.8008-5.51758Z"/>
  </g>
  <line style="fill:none;stroke:#00AEEF;stroke-width:0.5;opacity:1.0;" x1="793.197" x2="793.197" y1="1919" y2="1933"/>
  <text style="stroke:none;fill:black;font-family:sans-serif;font-size:13;font-weight:bold;" transform="matrix(1 0 0 1 776 1953)">Margins</text>
  <text style="stroke:none;fill:black;font-family:sans-serif;font-size:13;" transform="matrix(1 0 0 1 776 1971)">Leading and trailing margins on the left and right side of each symbol</text>
  <text style="stroke:none;fill:black;font-family:sans-serif;font-size:13;" transform="matrix(1 0 0 1 776 1989)">can be adjusted by modifying the x-location of the margin guidelines.</text>
  <text style="stroke:none;fill:black;font-family:sans-serif;font-size:13;" transform="matrix(1 0 0 1 776 2007)">Modifications are automatically applied proportionally to all</text>
  <text style="stroke:none;fill:black;font-family:sans-serif;font-size:13;" transform="matrix(1 0 0 1 776 2025)">scales and weights.</text>
  <g transform="matrix(1 0 0 1 1289 1933)">
   <path d="M2.8418 1.86523L4.54102 3.57422Q5.18555 4.22852 5.90332 4.17969Q6.62109 4.13086 7.31445 3.35938L18.0078-8.42773L17.041-9.4043L6.42578 2.27539Q6.16211 2.57812 5.89355 2.61719Q5.625 2.65625 5.27344 2.30469L4.10156 1.14258Q3.75 0.791016 3.79395 0.522461Q3.83789 0.253906 4.14062-0.0195312L15.6152-10.8203L14.6387-11.7871L3.04688-0.898438Q2.30469-0.214844 2.25098 0.498047Q2.19727 1.21094 2.8418 1.86523ZM9.25781-16.3281Q8.94531-16.0254 8.90625-15.6348Q8.86719-15.2441 9.04297-14.9512Q9.21875-14.6777 9.55566-14.541Q9.89258-14.4043 10.3809-14.5215Q11.4746-14.7754 12.5977-14.7314Q13.7207-14.6875 14.7949-13.9844L14.209-12.5293Q13.9551-11.9043 14.0674-11.4404Q14.1797-10.9766 14.5801-10.5664L16.875-8.25195Q17.2363-7.88086 17.5781-7.82227Q17.9199-7.76367 18.3398-7.8418L19.4043-8.03711L20.0684-7.36328L20.0293-6.80664Q20-6.43555 20.1221-6.12305Q20.2441-5.81055 20.6055-5.44922L21.3672-4.70703Q21.7285-4.3457 22.1533-4.33105Q22.5781-4.31641 22.9297-4.66797L25.8398-7.58789Q26.1914-7.93945 26.1816-8.35449Q26.1719-8.76953 25.8105-9.13086L25.0391-9.89258Q24.6875-10.2539 24.3799-10.3857Q24.0723-10.5176 23.7109-10.4883L23.1348-10.4395L22.4902-11.0742L22.7344-12.1973Q22.832-12.6172 22.6953-12.9834Q22.5586-13.3496 22.1191-13.7891L19.9219-15.9766Q18.6719-17.2168 17.2607-17.8369Q15.8496-18.457 14.4189-18.4814Q12.9883-18.5059 11.665-17.959Q10.3418-17.4121 9.25781-16.3281ZM10.752-15.957Q11.6602-16.6211 12.7002-16.9043Q13.7402-17.1875 14.8047-17.085Q15.8691-16.9824 16.8701-16.5137Q17.8711-16.0449 18.7012-15.2051L21.1328-12.793Q21.3086-12.6172 21.3525-12.4512Q21.3965-12.2852 21.3379-12.0312L21.0156-10.5469L22.5195-9.0625L23.5059-9.12109Q23.6914-9.13086 23.7891-9.09668Q23.8867-9.0625 24.0332-8.91602L24.6094-8.33984L22.168-5.89844L21.5918-6.47461Q21.4453-6.62109 21.4062-6.71875Q21.3672-6.81641 21.377-7.01172L21.4453-7.98828L19.9512-9.47266L18.4277-9.21875Q18.1836-9.16992 18.042-9.2041Q17.9004-9.23828 17.7148-9.41406L15.7129-11.416Q15.5176-11.5918 15.4932-11.7529Q15.4688-11.9141 15.5859-12.1875L16.4648-14.2773Q15.293-15.3711 13.8281-15.791Q12.3633-16.2109 10.8398-15.7617Q10.7227-15.7324 10.6885-15.8057Q10.6543-15.8789 10.752-15.957Z"/>
  </g>
  <text style="stroke:none;fill:black;font-family:sans-serif;font-size:13;font-weight:bold;" transform="matrix(1 0 0 1 1289 1953)">Exporting</text>
  <text style="stroke:none;fill:black;font-family:sans-serif;font-size:13;" transform="matrix(1 0 0 1 1289 1971)">Symbols should be outlined when exporting to ensure the</text>
  <text style="stroke:none;fill:black;font-family:sans-serif;font-size:13;" transform="matrix(1 0 0 1 1289 1989)">design is preserved when submitting to Xcode.</text>
  <text id="template-version" style="stroke:none;fill:black;font-family:sans-serif;font-size:13;text-anchor:end;" transform="matrix(1 0 0 1 3036 1933)">Template v.2.0</text>
  <text style="stroke:none;fill:black;font-family:sans-serif;font-size:13;text-anchor:end;" transform="matrix(1 0 0 1 3036 1951)">Requires Xcode 12 or greater</text>
  <text id="descriptive-name" style="stroke:none;fill:black;font-family:sans-serif;font-size:13;text-anchor:end;" transform="matrix(1 0 0 1 3036 1969)">Generated from custom.pencil</text>
  <text style="stroke:none;fill:black;font-family:sans-serif;font-size:13;text-anchor:end;" transform="matrix(1 0 0 1 3036 1987)">Typeset at 100 points</text>
  <text style="stroke:none;fill:black;font-family:sans-serif;font-size:13;" transform="matrix(1 0 0 1 263 726)">Small</text>
  <text style="stroke:none;fill:black;font-family:sans-serif;font-size:13;" transform="matrix(1 0 0 1 263 1156)">Medium</text>
  <text style="stroke:none;fill:black;font-family:sans-serif;font-size:13;" transform="matrix(1 0 0 1 263 1586)">Large</text>
 </g>
 <g id="Guides">
  <g id="H-reference" style="fill:#27AAE1;stroke:none;" transform="matrix(1 0 0 1 339 696)">
   <path d="M0.993347 0L3.6377 0L29.3282-67.1326L30.0301-67.1326L30.0301-70.459L28.1227-70.459ZM11.6882-24.4797L46.9818-24.4797L46.2311-26.7288L12.4382-26.7288ZM55.1193 0L57.7637 0L30.6381-70.459L29.4327-70.459L29.4327-67.1326Z"/>
  </g>
  <line id="Baseline-S" style="fill:none;stroke:#27AAE1;opacity:1;stroke-width:0.5;" x1="263" x2="3036" y1="696" y2="696"/>
  <line id="Capline-S" style="fill:none;stroke:#27AAE1;opacity:1;stroke-width:0.5;" x1="263" x2="3036" y1="625.541" y2="625.541"/>
  <g id="H-reference" style="fill:#27AAE1;stroke:none;" transform="matrix(1 0 0 1 339 1126)">
   <path d="M0.993347 0L3.6377 0L29.3282-67.1326L30.0301-67.1326L30.0301-70.459L28.1227-70.459ZM11.6882-24.4797L46.9818-24.4797L46.2311-26.7288L12.4382-26.7288ZM55.1193 0L57.7637 0L30.6381-70.459L29.4327-70.459L29.4327-67.1326Z"/>
  </g>
  <line id="Baseline-M" style="fill:none;stroke:#27AAE1;opacity:1;stroke-width:0.5;" x1="263" x2="3036" y1="1126" y2="1126"/>
  <line id="Capline-M" style="fill:none;stroke:#27AAE1;opacity:1;stroke-width:0.5;" x1="263" x2="3036" y1="1055.54" y2="1055.54"/>
  <g id="H-reference" style="fill:#27AAE1;stroke:none;" transform="matrix(1 0 0 1 339 1556)">
   <path d="M0.993347 0L3.6377 0L29.3282-67.1326L30.0301-67.1326L30.0301-70.459L28.1227-70.459ZM11.6882-24.4797L46.9818-24.4797L46.2311-26.7288L12.4382-26.7288ZM55.1193 0L57.7637 0L30.6381-70.459L29.4327-70.459L29.4327-67.1326Z"/>
  </g>
  <line id="Baseline-L" style="fill:none;stroke:#27AAE1;opacity:1;stroke-width:0.5;" x1="263" x2="3036" y1="1556" y2="1556"/>
  <line id="Capline-L" style="fill:none;stroke:#27AAE1;opacity:1;stroke-width:0.5;" x1="263" x2="3036" y1="1485.54" y2="1485.54"/>
  <line id="left-margin" style="fill:none;stroke:#00AEEF;stroke-width:0.5;opacity:1.0;" x1="1385.454" x2="1385.454" y1="1030.78" y2="1150.12"/>
  <line id="right-margin" style="fill:none;stroke:#00AEEF;stroke-width:0.5;opacity:1.0;" x1="1514.236" x2="1514.236" y1="1030.78" y2="1150.12"/>
 </g>
 <g id="Symbols">
  
  
  
  
  
  
  
  
  
  
  
  
  
  
  
  
  
  
  <g id="Black-S" transform="matrix(3.0694137500000016 0 0 3.0694137500000016 2884.28438 611.65988)"><g transform="scale(0.9696969696969697 3.5555555555555554)"><path d="M10.088 0.930374C7.88742 0.933405 6.10436 2.7165 6.10133 4.91675V4.91703C6.10361 7.11787 7.88714 8.90144 10.0878 8.90369H10.088C12.2885 8.90066 14.0716 7.11756 14.0746 4.91731V4.91703C14.0724 2.71619 12.2888 0.932624 10.0882 0.930374H10.088ZM10.088 8.05437C8.35864 8.05437 6.94933 6.64637 6.94933 4.91703C6.94933 3.18769 8.35867 1.77969 10.088 1.77969C11.8173 1.77969 13.2253 3.18769 13.2253 4.91703C13.2253 6.64637 11.8173 8.05437 10.088 8.05437ZM18.7173 0.930374C16.5168 0.933405 14.7337 2.7165 14.7307 4.91675V4.91703C14.733 7.11787 16.5165 8.90144 18.7171 8.90369H18.7173C20.9179 8.90066 22.701 7.11756 22.704 4.91731V4.91703C22.701 2.71647 20.9179 0.933405 18.7176 0.930374H18.7173ZM18.7173 8.05437C16.9867 8.05437 15.58 6.64637 15.58 4.91703C15.58 3.18769 16.9866 1.77969 18.7173 1.77969C20.4467 1.77969 21.8547 3.18769 21.8547 4.91703C21.8547 6.64637 20.4467 8.05437 18.7173 8.05437ZM3.23467 3.32103C3.11314 3.30234 2.97295 3.29165 2.83027 3.29165C2.17745 3.29165 1.57683 3.51506 1.10067 3.88956L1.1067 3.885V1.77166H4.68936C4.81336 1.77166 4.9027 1.749 4.9027 1.38231C4.9027 1.02365 4.7587 1.00897 4.6627 1.00897H0.697361C0.465361 1.00897 0.344017 1.19562 0.344017 1.40097V4.87031C0.344017 5.05166 0.460017 5.11431 0.673361 5.15565C0.861361 5.193 0.970705 5.17166 1.05336 5.07966L1.06136 5.06631C1.4387 4.52231 2.26136 3.99431 3.0427 4.09031C3.9747 4.20497 4.72536 4.94897 4.82936 5.85966C4.8378 5.92887 4.84261 6.00903 4.84261 6.09031C4.84261 7.20322 3.94083 8.1055 2.82811 8.10631H2.82802C1.98136 8.10631 1.24136 7.56231 0.933361 6.77166C0.886705 6.65431 0.810705 6.569 0.476017 6.689C0.170674 6.79966 0.152017 6.93034 0.193361 7.04634C0.597955 8.13141 1.62386 8.89087 2.82761 8.89434H2.82805C4.3693 8.88562 5.61536 7.63419 5.61536 6.09172C5.61536 4.69281 4.59045 3.53325 3.25055 3.32306L3.23474 3.32103H3.23467ZM25.4293 0.96903C24.356 1.05169 23.5173 1.99437 23.5173 3.11569V6.66369C23.5173 6.86903 23.6733 6.91169 23.908 6.91169C24.1426 6.91169 24.2986 6.87034 24.2986 6.66369V3.10634C24.2986 2.40769 24.808 1.80769 25.456 1.741C25.4977 1.73622 25.5461 1.7335 25.5951 1.7335C25.9312 1.7335 26.2374 1.86144 26.4677 2.07125L26.4667 2.07031C26.7309 2.31119 26.896 2.65681 26.896 3.041C26.896 3.04147 26.896 3.0419 26.896 3.04237V3.04231C26.896 3.14897 26.844 3.49565 26.6067 3.81697C26.4267 4.05962 26.0853 4.34897 25.4813 4.34897H25.4693C25.316 4.34897 25.1827 4.35562 25.1573 4.72231C25.14 4.97031 25.1413 5.08097 25.3547 5.10897C25.736 5.16231 26.1227 5.08762 26.508 4.88762C27.164 4.54628 27.604 3.89962 27.656 3.19828C27.6598 3.15097 27.662 3.09587 27.662 3.04028C27.662 2.46584 27.4295 1.94569 27.0533 1.5689L27.0534 1.56894C26.6773 1.1945 26.1586 0.96303 25.5859 0.96303C25.5308 0.96303 25.4762 0.965186 25.4222 0.969374L25.4294 0.968937L25.4293 0.96903ZM30.6547 3.04769L32.1013 1.60103C32.1547 1.54903 32.2773 1.42503 32.028 1.16903C31.9213 1.05837 31.824 1.00237 31.7386 1.00237H31.7373C31.6726 1.00391 31.615 1.03347 31.5762 1.07937L31.576 1.07969L30.1253 2.53034L28.6773 1.073C28.56 0.955656 28.424 0.983655 28.248 1.15965C28.068 1.341 28.0386 1.47965 28.156 1.597L29.604 3.053L28.176 4.481C28.1413 4.51434 28.0893 4.565 28.0893 4.64766C28.088 4.73166 28.1453 4.833 28.2573 4.945C28.3507 5.03965 28.4413 5.08766 28.524 5.08766C28.616 5.08766 28.676 5.02766 28.7093 4.99431L30.1333 3.57166L31.588 5.02766C31.6267 5.06481 31.6794 5.08766 31.7374 5.08766C31.7383 5.08766 31.7392 5.08766 31.7401 5.08762H31.7426C31.8346 5.08762 31.932 5.03428 32.032 4.93028C32.1946 4.75828 32.2226 4.61562 32.1133 4.50494L30.6547 3.04769Z" fill="black"/></g></g>
  
  
  
  
  <g id="Regular-S" transform="matrix(2.9196862500000016 0 0 2.9196862500000016 1403.13002 614.0555200000001)"><g transform="scale(0.9696969696969697 3.5555555555555554)"><path d="M10.088 0.930374C7.88742 0.933405 6.10436 2.7165 6.10133 4.91675V4.91703C6.10361 7.11787 7.88714 8.90144 10.0878 8.90369H10.088C12.2885 8.90066 14.0716 7.11756 14.0746 4.91731V4.91703C14.0724 2.71619 12.2888 0.932624 10.0882 0.930374H10.088ZM10.088 8.05437C8.35864 8.05437 6.94933 6.64637 6.94933 4.91703C6.94933 3.18769 8.35867 1.77969 10.088 1.77969C11.8173 1.77969 13.2253 3.18769 13.2253 4.91703C13.2253 6.64637 11.8173 8.05437 10.088 8.05437ZM18.7173 0.930374C16.5168 0.933405 14.7337 2.7165 14.7307 4.91675V4.91703C14.733 7.11787 16.5165 8.90144 18.7171 8.90369H18.7173C20.9179 8.90066 22.701 7.11756 22.704 4.91731V4.91703C22.701 2.71647 20.9179 0.933405 18.7176 0.930374H18.7173ZM18.7173 8.05437C16.9867 8.05437 15.58 6.64637 15.58 4.91703C15.58 3.18769 16.9866 1.77969 18.7173 1.77969C20.4467 1.77969 21.8547 3.18769 21.8547 4.91703C21.8547 6.64637 20.4467 8.05437 18.7173 8.05437ZM3.23467 3.32103C3.11314 3.30234 2.97295 3.29165 2.83027 3.29165C2.17745 3.29165 1.57683 3.51506 1.10067 3.88956L1.1067 3.885V1.77166H4.68936C4.81336 1.77166 4.9027 1.749 4.9027 1.38231C4.9027 1.02365 4.7587 1.00897 4.6627 1.00897H0.697361C0.465361 1.00897 0.344017 1.19562 0.344017 1.40097V4.87031C0.344017 5.05166 0.460017 5.11431 0.673361 5.15565C0.861361 5.193 0.970705 5.17166 1.05336 5.07966L1.06136 5.06631C1.4387 4.52231 2.26136 3.99431 3.0427 4.09031C3.9747 4.20497 4.72536 4.94897 4.82936 5.85966C4.8378 5.92887 4.84261 6.00903 4.84261 6.09031C4.84261 7.20322 3.94083 8.1055 2.82811 8.10631H2.82802C1.98136 8.10631 1.24136 7.56231 0.933361 6.77166C0.886705 6.65431 0.810705 6.569 0.476017 6.689C0.170674 6.79966 0.152017 6.93034 0.193361 7.04634C0.597955 8.13141 1.62386 8.89087 2.82761 8.89434H2.82805C4.3693 8.88562 5.61536 7.63419 5.61536 6.09172C5.61536 4.69281 4.59045 3.53325 3.25055 3.32306L3.23474 3.32103H3.23467ZM25.4293 0.96903C24.356 1.05169 23.5173 1.99437 23.5173 3.11569V6.66369C23.5173 6.86903 23.6733 6.91169 23.908 6.91169C24.1426 6.91169 24.2986 6.87034 24.2986 6.66369V3.10634C24.2986 2.40769 24.808 1.80769 25.456 1.741C25.4977 1.73622 25.5461 1.7335 25.5951 1.7335C25.9312 1.7335 26.2374 1.86144 26.4677 2.07125L26.4667 2.07031C26.7309 2.31119 26.896 2.65681 26.896 3.041C26.896 3.04147 26.896 3.0419 26.896 3.04237V3.04231C26.896 3.14897 26.844 3.49565 26.6067 3.81697C26.4267 4.05962 26.0853 4.34897 25.4813 4.34897H25.4693C25.316 4.34897 25.1827 4.35562 25.1573 4.72231C25.14 4.97031 25.1413 5.08097 25.3547 5.10897C25.736 5.16231 26.1227 5.08762 26.508 4.88762C27.164 4.54628 27.604 3.89962 27.656 3.19828C27.6598 3.15097 27.662 3.09587 27.662 3.04028C27.662 2.46584 27.4295 1.94569 27.0533 1.5689L27.0534 1.56894C26.6773 1.1945 26.1586 0.96303 25.5859 0.96303C25.5308 0.96303 25.4762 0.965186 25.4222 0.969374L25.4294 0.968937L25.4293 0.96903ZM30.6547 3.04769L32.1013 1.60103C32.1547 1.54903 32.2773 1.42503 32.028 1.16903C31.9213 1.05837 31.824 1.00237 31.7386 1.00237H31.7373C31.6726 1.00391 31.615 1.03347 31.5762 1.07937L31.576 1.07969L30.1253 2.53034L28.6773 1.073C28.56 0.955656 28.424 0.983655 28.248 1.15965C28.068 1.341 28.0386 1.47965 28.156 1.597L29.604 3.053L28.176 4.481C28.1413 4.51434 28.0893 4.565 28.0893 4.64766C28.088 4.73166 28.1453 4.833 28.2573 4.945C28.3507 5.03965 28.4413 5.08766 28.524 5.08766C28.616 5.08766 28.676 5.02766 28.7093 4.99431L30.1333 3.57166L31.588 5.02766C31.6267 5.06481 31.6794 5.08766 31.7374 5.08766C31.7383 5.08766 31.7392 5.08766 31.7401 5.08762H31.7426C31.8346 5.08762 31.932 5.03428 32.032 4.93028C32.1946 4.75828 32.2226 4.61562 32.1133 4.50494L30.6547 3.04769Z" fill="black"/></g></g>
  
  
  <g id="Ultralight-S" transform="matrix(2.9047135000000015 0 0 2.9047135000000015 513.2395840000001 614.2950840000001)"><g transform="scale(0.9696969696969697 3.5555555555555554)"><path d="M10.088 0.930374C7.88742 0.933405 6.10436 2.7165 6.10133 4.91675V4.91703C6.10361 7.11787 7.88714 8.90144 10.0878 8.90369H10.088C12.2885 8.90066 14.0716 7.11756 14.0746 4.91731V4.91703C14.0724 2.71619 12.2888 0.932624 10.0882 0.930374H10.088ZM10.088 8.05437C8.35864 8.05437 6.94933 6.64637 6.94933 4.91703C6.94933 3.18769 8.35867 1.77969 10.088 1.77969C11.8173 1.77969 13.2253 3.18769 13.2253 4.91703C13.2253 6.64637 11.8173 8.05437 10.088 8.05437ZM18.7173 0.930374C16.5168 0.933405 14.7337 2.7165 14.7307 4.91675V4.91703C14.733 7.11787 16.5165 8.90144 18.7171 8.90369H18.7173C20.9179 8.90066 22.701 7.11756 22.704 4.91731V4.91703C22.701 2.71647 20.9179 0.933405 18.7176 0.930374H18.7173ZM18.7173 8.05437C16.9867 8.05437 15.58 6.64637 15.58 4.91703C15.58 3.18769 16.9866 1.77969 18.7173 1.77969C20.4467 1.77969 21.8547 3.18769 21.8547 4.91703C21.8547 6.64637 20.4467 8.05437 18.7173 8.05437ZM3.23467 3.32103C3.11314 3.30234 2.97295 3.29165 2.83027 3.29165C2.17745 3.29165 1.57683 3.51506 1.10067 3.88956L1.1067 3.885V1.77166H4.68936C4.81336 1.77166 4.9027 1.749 4.9027 1.38231C4.9027 1.02365 4.7587 1.00897 4.6627 1.00897H0.697361C0.465361 1.00897 0.344017 1.19562 0.344017 1.40097V4.87031C0.344017 5.05166 0.460017 5.11431 0.673361 5.15565C0.861361 5.193 0.970705 5.17166 1.05336 5.07966L1.06136 5.06631C1.4387 4.52231 2.26136 3.99431 3.0427 4.09031C3.9747 4.20497 4.72536 4.94897 4.82936 5.85966C4.8378 5.92887 4.84261 6.00903 4.84261 6.09031C4.84261 7.20322 3.94083 8.1055 2.82811 8.10631H2.82802C1.98136 8.10631 1.24136 7.56231 0.933361 6.77166C0.886705 6.65431 0.810705 6.569 0.476017 6.689C0.170674 6.79966 0.152017 6.93034 0.193361 7.04634C0.597955 8.13141 1.62386 8.89087 2.82761 8.89434H2.82805C4.3693 8.88562 5.61536 7.63419 5.61536 6.09172C5.61536 4.69281 4.59045 3.53325 3.25055 3.32306L3.23474 3.32103H3.23467ZM25.4293 0.96903C24.356 1.05169 23.5173 1.99437 23.5173 3.11569V6.66369C23.5173 6.86903 23.6733 6.91169 23.908 6.91169C24.1426 6.91169 24.2986 6.87034 24.2986 6.66369V3.10634C24.2986 2.40769 24.808 1.80769 25.456 1.741C25.4977 1.73622 25.5461 1.7335 25.5951 1.7335C25.9312 1.7335 26.2374 1.86144 26.4677 2.07125L26.4667 2.07031C26.7309 2.31119 26.896 2.65681 26.896 3.041C26.896 3.04147 26.896 3.0419 26.896 3.04237V3.04231C26.896 3.14897 26.844 3.49565 26.6067 3.81697C26.4267 4.05962 26.0853 4.34897 25.4813 4.34897H25.4693C25.316 4.34897 25.1827 4.35562 25.1573 4.72231C25.14 4.97031 25.1413 5.08097 25.3547 5.10897C25.736 5.16231 26.1227 5.08762 26.508 4.88762C27.164 4.54628 27.604 3.89962 27.656 3.19828C27.6598 3.15097 27.662 3.09587 27.662 3.04028C27.662 2.46584 27.4295 1.94569 27.0533 1.5689L27.0534 1.56894C26.6773 1.1945 26.1586 0.96303 25.5859 0.96303C25.5308 0.96303 25.4762 0.965186 25.4222 0.969374L25.4294 0.968937L25.4293 0.96903ZM30.6547 3.04769L32.1013 1.60103C32.1547 1.54903 32.2773 1.42503 32.028 1.16903C31.9213 1.05837 31.824 1.00237 31.7386 1.00237H31.7373C31.6726 1.00391 31.615 1.03347 31.5762 1.07937L31.576 1.07969L30.1253 2.53034L28.6773 1.073C28.56 0.955656 28.424 0.983655 28.248 1.15965C28.068 1.341 28.0386 1.47965 28.156 1.597L29.604 3.053L28.176 4.481C28.1413 4.51434 28.0893 4.565 28.0893 4.64766C28.088 4.73166 28.1453 4.833 28.2573 4.945C28.3507 5.03965 28.4413 5.08766 28.524 5.08766C28.616 5.08766 28.676 5.02766 28.7093 4.99431L30.1333 3.57166L31.588 5.02766C31.6267 5.06481 31.6794 5.08766 31.7374 5.08766C31.7383 5.08766 31.7392 5.08766 31.7401 5.08762H31.7426C31.8346 5.08762 31.932 5.03428 32.032 4.93028C32.1946 4.75828 32.2226 4.61562 32.1133 4.50494L30.6547 3.04769Z" fill="black"/></g></g>
 </g>
</svg>