<svg xmlns="http://www.w3.org/2000/svg" xmlns:xlink="http://www.w3.org/1999/xlink" width="0" height="0" style="display:none;"><symbol viewBox="0 0 33 9" id="500px">
<path d="M10.088 0.930374C7.88742 0.933405 6.10436 2.7165 6.10133 4.91675V4.91703C6.10361 7.11787 7.88714 8.90144 10.0878 8.90369H10.088C12.2885 8.90066 14.0716 7.11756 14.0746 4.91731V4.91703C14.0724 2.71619 12.2888 0.932624 10.0882 0.930374H10.088ZM10.088 8.05437C8.35864 8.05437 6.94933 6.64637 6.94933 4.91703C6.94933 3.18769 8.35867 1.77969 10.088 1.77969C11.8173 1.77969 13.2253 3.18769 13.2253 4.91703C13.2253 6.64637 11.8173 8.05437 10.088 8.05437ZM18.7173 0.930374C16.5168 0.933405 14.7337 2.7165 14.7307 4.91675V4.91703C14.733 7.11787 16.5165 8.90144 18.7171 8.90369H18.7173C20.9179 8.90066 22.701 7.11756 22.704 4.91731V4.91703C22.701 2.71647 20.9179 0.933405 18.7176 0.930374H18.7173ZM18.7173 8.05437C16.9867 8.05437 15.58 6.64637 15.58 4.91703C15.58 3.18769 16.9866 1.77969 18.7173 1.77969C20.4467 1.77969 21.8547 3.18769 21.8547 4.91703C21.8547 6.64637 20.4467 8.05437 18.7173 8.05437ZM3.23467 3.32103C3.11314 3.30234 2.97295 3.29165 2.83027 3.29165C2.17745 3.29165 1.57683 3.51506 1.10067 3.88956L1.1067 3.885V1.77166H4.68936C4.81336 1.77166 4.9027 1.749 4.9027 1.38231C4.9027 1.02365 4.7587 1.00897 4.6627 1.00897H0.697361C0.465361 1.00897 0.344017 1.19562 0.344017 1.40097V4.87031C0.344017 5.05166 0.460017 5.11431 0.673361 5.15565C0.861361 5.193 0.970705 5.17166 1.05336 5.07966L1.06136 5.06631C1.4387 4.52231 2.26136 3.99431 3.0427 4.09031C3.9747 4.20497 4.72536 4.94897 4.82936 5.85966C4.8378 5.92887 4.84261 6.00903 4.84261 6.09031C4.84261 7.20322 3.94083 8.1055 2.82811 8.10631H2.82802C1.98136 8.10631 1.24136 7.56231 0.933361 6.77166C0.886705 6.65431 0.810705 6.569 0.476017 6.689C0.170674 6.79966 0.152017 6.93034 0.193361 7.04634C0.597955 8.13141 1.62386 8.89087 2.82761 8.89434H2.82805C4.3693 8.88562 5.61536 7.63419 5.61536 6.09172C5.61536 4.69281 4.59045 3.53325 3.25055 3.32306L3.23474 3.32103H3.23467ZM25.4293 0.96903C24.356 1.05169 23.5173 1.99437 23.5173 3.11569V6.66369C23.5173 6.86903 23.6733 6.91169 23.908 6.91169C24.1426 6.91169 24.2986 6.87034 24.2986 6.66369V3.10634C24.2986 2.40769 24.808 1.80769 25.456 1.741C25.4977 1.73622 25.5461 1.7335 25.5951 1.7335C25.9312 1.7335 26.2374 1.86144 26.4677 2.07125L26.4667 2.07031C26.7309 2.31119 26.896 2.65681 26.896 3.041C26.896 3.04147 26.896 3.0419 26.896 3.04237V3.04231C26.896 3.14897 26.844 3.49565 26.6067 3.81697C26.4267 4.05962 26.0853 4.34897 25.4813 4.34897H25.4693C25.316 4.34897 25.1827 4.35562 25.1573 4.72231C25.14 4.97031 25.1413 5.08097 25.3547 5.10897C25.736 5.16231 26.1227 5.08762 26.508 4.88762C27.164 4.54628 27.604 3.89962 27.656 3.19828C27.6598 3.15097 27.662 3.09587 27.662 3.04028C27.662 2.46584 27.4295 1.94569 27.0533 1.5689L27.0534 1.56894C26.6773 1.1945 26.1586 0.96303 25.5859 0.96303C25.5308 0.96303 25.4762 0.965186 25.4222 0.969374L25.4294 0.968937L25.4293 0.96903ZM30.6547 3.04769L32.1013 1.60103C32.1547 1.54903 32.2773 1.42503 32.028 1.16903C31.9213 1.05837 31.824 1.00237 31.7386 1.00237H31.7373C31.6726 1.00391 31.615 1.03347 31.5762 1.07937L31.576 1.07969L30.1253 2.53034L28.6773 1.073C28.56 0.955656 28.424 0.983655 28.248 1.15965C28.068 1.341 28.0386 1.47965 28.156 1.597L29.604 3.053L28.176 4.481C28.1413 4.51434 28.0893 4.565 28.0893 4.64766C28.088 4.73166 28.1453 4.833 28.2573 4.945C28.3507 5.03965 28.4413 5.08766 28.524 5.08766C28.616 5.08766 28.676 5.02766 28.7093 4.99431L30.1333 3.57166L31.588 5.02766C31.6267 5.06481 31.6794 5.08766 31.7374 5.08766C31.7383 5.08766 31.7392 5.08766 31.7401 5.08762H31.7426C31.8346 5.08762 31.932 5.03428 32.032 4.93028C32.1946 4.75828 32.2226 4.61562 32.1133 4.50494L30.6547 3.04769Z" fill="black"/>
</symbol><symbol viewBox="0 0 33 33" id="abbrobotstudio">
<g clip-path="url(#clip0_85_413)">
<path d="M32.1694 17.5303C32.1694 24.5996 26.4386 30.3303 19.3694 30.3303C12.3001 30.3303 6.56936 24.5996 6.56936 17.5303H7.99601C7.99601 23.8116 13.088 28.9037 19.3694 28.9037C25.6507 28.9037 30.7427 23.8117 30.7427 17.5303C30.7427 11.249 25.6507 6.15697 19.3694 6.15697V4.73032C26.4386 4.73032 32.1694 10.4611 32.1694 17.5303ZM19.3694 13.2636C17.013 13.2636 15.1027 15.1739 15.1027 17.5303C15.1027 19.8867 17.013 21.7969 19.3694 21.7969C21.7258 21.7969 23.636 19.8867 23.636 17.5303C23.636 15.1739 21.7258 13.2636 19.3694 13.2636ZM16.7027 13.2636L15.9027 4.37029L12.6227 6.93029L10.676 5.01029C9.59089 4.06782 8.16404 3.49341 6.60308 3.49341C5.32995 3.49341 4.14604 3.87551 3.15983 4.53129L3.18273 4.51698L0.489388 6.25032C0.29792 6.38166 0.17392 6.59932 0.17392 6.84591C0.17392 6.99126 0.216982 7.12657 0.291076 7.23973L0.289388 7.23698C0.420732 7.42844 0.638388 7.55245 0.884982 7.55245C1.03033 7.55245 1.16564 7.50938 1.27879 7.43529L1.27604 7.43698L3.9427 5.69032C4.69211 5.19304 5.61248 4.89688 6.60201 4.89688C7.76642 4.89688 8.83504 5.30695 9.67136 5.99051L9.66267 5.98363L11.4893 7.82363L8.43598 10.2503L16.7027 13.2636Z" fill="black"/>
</g>
<defs>
<clipPath id="clip0_85_413">
<rect width="32" height="32" fill="white" transform="translate(0.169342 0.916992)"/>
</clipPath>
</defs>
</symbol><symbol viewBox="0 0 33 33" id="about-dot-me">
<g clip-path="url(#clip0_85_422)">
<path d="M26.2173 13.117C24.3867 13.117 23.3733 14.469 23.1587 15.9384H29.3027C29.136 14.5384 28.1467 13.1184 26.2173 13.1184V13.117ZM23.204 17.941C23.5173 19.4824 24.7947 20.5677 26.58 20.5677C27.5467 20.5677 28.94 20.2077 29.7587 19.349L31.3253 21.149C29.9067 22.629 27.788 23.0504 26.3387 23.0504C22.8187 23.0504 20.076 20.509 20.076 16.909C20.076 13.529 22.6013 10.749 26.1693 10.749C29.616 10.749 32.1693 13.389 32.1693 16.8877V17.909H23.2053L23.204 17.941ZM14.5547 23.0477V15.461C14.5547 14.1597 13.9747 13.413 12.7707 13.413C11.6853 13.413 10.964 14.193 10.4813 14.7557V23.0757H7.348V15.4757C7.348 14.1743 6.79466 13.433 5.59066 13.433C4.50666 13.433 3.75731 14.2144 3.30131 14.7744V23.0944H0.169312V10.9277H3.30266V12.461C3.836 11.8424 5.03866 10.781 6.916 10.781C8.57866 10.781 9.71066 11.481 10.2187 12.901C10.9173 11.885 12.2187 10.781 14.0987 10.781C16.3653 10.781 17.6853 12.1277 17.6853 14.7304V23.0504H14.548L14.5547 23.0477Z" fill="black"/>
</g>
<defs>
<clipPath id="clip0_85_422">
<rect width="32" height="32" fill="white" transform="translate(0.169342 0.916992)"/>
</clipPath>
</defs>
</symbol><symbol viewBox="0 0 33 33" id="abstract">
<g clip-path="url(#clip0_85_431)">
<path d="M16.1693 0.916992C28.9707 0.916992 32.1693 4.11565 32.1693 16.917C32.1693 29.7183 28.9707 32.917 16.1693 32.917C3.36797 32.917 0.169312 29.7183 0.169312 16.917C0.169312 4.11565 3.36797 0.916992 16.1693 0.916992ZM13.544 25.669C16.9093 25.673 19.6826 22.909 19.6893 19.5423C19.6893 16.181 16.924 13.4157 13.5627 13.4157C10.2013 13.4157 7.436 16.1823 7.436 19.5423C7.436 22.897 10.1893 25.6597 13.544 25.669H13.544ZM24.6693 25.417V8.41699H7.66931V11.413H21.6667V25.417H24.6693ZM13.544 16.4196C15.2687 16.4204 16.6666 17.8188 16.6666 19.5436C16.6666 21.269 15.268 22.6676 13.5426 22.6676C13.5422 22.6676 13.5417 22.6676 13.5412 22.6676H13.5413C11.8165 22.6669 10.4186 21.2685 10.4186 19.5436C10.4186 17.8183 11.8173 16.4196 13.5426 16.4196C13.5431 16.4196 13.5436 16.4196 13.544 16.4196H13.544Z" fill="black"/>
</g>
<defs>
<clipPath id="clip0_85_431">
<rect width="32" height="32" fill="white" transform="translate(0.169312 0.916992)"/>
</clipPath>
</defs>
</symbol><symbol viewBox="0 0 33 33" id="academia">
<g clip-path="url(#clip0_85_440)">
<path d="M29.5467 29.1569L18.5293 1.52893H10.6613L12.06 5.02628L2.61731 29.1569C2.26797 30.3809 1.21866 30.5569 0.169312 30.7316V32.3049H9.26266V30.7316C6.81466 30.5569 5.41466 30.2062 6.464 27.5836C6.63866 27.4089 7.33865 25.4849 8.212 23.0369H19.4027L20.976 27.0583C21.1507 27.7583 21.3253 28.2823 21.3253 28.8063C21.3253 30.2049 20.1013 30.7303 17.828 30.7303V32.3036H32.1693V30.7303C30.9453 30.5569 29.896 30.2063 29.5467 29.1569H29.5467ZM9.26266 20.0649C11.0107 15.6929 12.9347 10.6223 13.6347 8.69827L18.1813 20.0649H9.26266Z" fill="black"/>
</g>
<defs>
<clipPath id="clip0_85_440">
<rect width="32" height="32" fill="white" transform="translate(0.169312 0.916992)"/>
</clipPath>
</defs>
</symbol><symbol viewBox="0 0 33 33" id="1password">
<path d="M14.1827 14.2676V10.649C14.1827 10.241 14.5133 9.91034 14.9213 9.91034H17.4693C17.8773 9.91034 18.208 10.241 18.208 10.649V17.273C18.208 17.3743 18.1573 17.4516 18.1067 17.5276L17.4693 18.165C17.316 18.3183 17.316 18.5476 17.4693 18.6743L18.1067 19.3117C18.1827 19.3877 18.208 19.465 18.208 19.5663V23.1837C18.208 23.5917 17.8773 23.9223 17.4693 23.9223H14.9213C14.5133 23.9223 14.1827 23.5917 14.1827 23.1837V16.5597C14.1827 16.4583 14.2333 16.381 14.284 16.305L14.9214 15.6677C15.0747 15.5143 15.0747 15.285 14.9214 15.1583L14.284 14.521C14.208 14.445 14.1827 14.369 14.1827 14.2676V14.2676ZM25.672 16.917C25.672 11.669 21.4173 7.41434 16.1693 7.41434C10.9213 7.41434 6.66669 11.669 6.66669 16.917C6.66669 22.165 10.9213 26.4196 16.1693 26.4196C21.4173 26.4196 25.672 22.165 25.672 16.917ZM28.6787 16.917C28.6787 23.821 23.0733 29.401 16.1947 29.401C9.29069 29.401 3.71069 23.7956 3.71069 16.917C3.71069 10.013 9.31603 4.43299 16.1947 4.43299C23.0733 4.43299 28.6787 10.013 28.6787 16.917ZM1.188 16.917C1.188 25.197 7.888 31.8983 16.1693 31.8983C24.4507 31.8983 31.1507 25.197 31.1507 16.917C31.1507 8.63699 24.4493 1.93565 16.1693 1.93565C7.88934 1.93565 1.188 8.63699 1.188 16.917V16.917ZM0.169342 16.917C0.169342 8.07565 7.328 0.916992 16.1693 0.916992C25.0107 0.916992 32.1693 8.07565 32.1693 16.917C32.1693 25.7583 25.0107 32.917 16.1693 32.917C7.328 32.917 0.169342 25.7583 0.169342 16.917Z" fill="black"/>
</symbol></svg>